<svg xmlns="http://www.w3.org/2000/svg" xmlns:xlink="http://www.w3.org/1999/xlink" width="275" height="275" viewBox="0 0 275 275">
  <defs>
    <clipPath id="clip-path">
      <circle id="楕円形_38" data-name="楕円形 38" cx="137.5" cy="137.5" r="137.5" transform="translate(300 1210)" fill="#fff"/>
    </clipPath>
    <clipPath id="clip-path-2">
      <rect id="長方形_67" data-name="長方形 67" width="237.336" height="239.602" fill="none"/>
    </clipPath>
  </defs>
  <g id="グループ_684" data-name="グループ 684" transform="translate(-300 -1039)">
    <circle id="楕円形_1" data-name="楕円形 1" cx="137.5" cy="137.5" r="137.5" transform="translate(300 1039)" fill="#fff"/>
    <g id="マスクグループ_1" data-name="マスクグループ 1" transform="translate(0 -171)" clip-path="url(#clip-path)">
      <g id="グループ_11" data-name="グループ 11" transform="translate(324.832 1245.398)">
        <g id="グループ_10" data-name="グループ 10" clip-path="url(#clip-path-2)">
          <path id="パス_29" data-name="パス 29" d="M0,61.819c.678-1.413,2.17-1.617,3.361-2.271,3.192-1.751,6.367-3.533,9.562-5.278a216.023,216.023,0,0,1,19.7-9.8c2.008-.847,3.125-.548,3.97,1.718.568,1.525,1.219,3.017,1.83,4.525,1.748,4.339,4.8,7.65,8.335,10.574,1.746,1.45,3.5,2.894,5.311,4.262,7.646,5.773,12.453,13.486,15.413,22.469A39.191,39.191,0,0,1,69.152,94.7c.406,2.8-.1,3.886-2.573,5.25-6.349,3.5-12.448,7.417-18.64,11.19-1.3.8-1.315.774-.849,2.222a11.743,11.743,0,0,1,.415,1.474c.113.612,0,1.205-.692,1.384-.651.167-1.011-.275-1.218-.827-.409-1.068-.739-2.15-1.246-3.193-.775-1.619-1.751-3.107-2.636-4.651a22.1,22.1,0,0,1-2.129-17.2c.1-.377.136-1.024.568-1,.523.027.3.667.364,1.035.463,2.755.195,5.551.458,8.321A17.922,17.922,0,0,0,43.9,107.2c.379.557.723,1.13,1.071,1.709.7,1.184.717,1.21,1.856.508,6.419-3.936,12.774-7.995,19.388-11.609a1.768,1.768,0,0,0,.976-1.8,21.278,21.278,0,0,0-1-5.254c-2.551-8.5-6.449-16.191-13.445-21.966-2.444-2.015-4.92-3.982-7.368-5.99a36.423,36.423,0,0,1-4.289-4.108c-3.247-3.709-5.469-7.593-5.632-13.1a149.635,149.635,0,0,0-17.513,8.3c-4.4,2.4-8.787,4.828-13.179,7.237a5.675,5.675,0,0,1-1.46.7c-1.157.242-1.126.979-.977,1.867a77.188,77.188,0,0,0,2.278,9,72.97,72.97,0,0,0,6.178,15.325,32.071,32.071,0,0,0,8.851,9.9c.324-.165.214-.42.227-.615q.246-4.5.484-9a4.2,4.2,0,0,1,.044-.572c.106-.5.331-.938.915-.948.629-.007.907.424.961.99a34.251,34.251,0,0,1-.116,5.073c-.2,3.666-.555,7.333.242,10.981a31.785,31.785,0,0,0,4,8.962c.7,1.22,1.434,2.416,2.137,3.633a2.736,2.736,0,0,1,.424,1.549c-.053.783-.458,1-1.154.618a2.188,2.188,0,0,1-.876-.864c-1.469-2.619-3.119-5.129-4.462-7.82a22.175,22.175,0,0,1-2.525-8.963c-.021-.468-.122-.743-.656-.862a3.233,3.233,0,0,1-1.047-.644A36.433,36.433,0,0,1,6.291,83.547,95.5,95.5,0,0,1,.211,63.235C.186,63.1.15,63,0,62.97Z" fill="#0f2347" fill-rule="evenodd"/>
          <path id="パス_30" data-name="パス 30" d="M48.7,194.427c-1.193-1-2.4-1.992-3.583-3a8.311,8.311,0,0,1-1.1-1.056,1.726,1.726,0,0,1,.287-2.616,6.5,6.5,0,0,1,1.685-.893q8.831-3.687,17.672-7.362a1.188,1.188,0,0,0,.892-1.144c.2-2.6.472-5.2.928-7.938a40.825,40.825,0,0,1-6.432,1.758c-6.681,1.226-13.267,1.38-19.617-1.606-6.52-3.07-10.261-8.391-12.359-15.079a48.151,48.151,0,0,1-1.888-12.95c-.215-6.424.027-12.846.347-19.262.15-2.983.81-3.663,3.789-3.929,5.316-.472,10.645-.827,15.95-1.327a79.168,79.168,0,0,0,12.362-2.089,15.9,15.9,0,0,0,1.984-.7c1.38-.563,2.151-.013,1.922,1.467-.466,2.97-.857,5.943-1.046,8.942a36.409,36.409,0,0,0,.418,9.1c.43-.554.764-.941,1.056-1.361,2.49-3.64,5.019-7.252,7.823-10.658a39.745,39.745,0,0,1,17.38-12.63,26.978,26.978,0,0,1,3.336-.834.957.957,0,0,1,1.108.557A6.169,6.169,0,0,0,93.855,112a21.366,21.366,0,0,0,17.473,2.629c4.1-1.065,7.054-3.885,9.579-7.153a13.805,13.805,0,0,0,2.42-4.1c.265-.811.964-.831,1.678-.657,1.362.332,2.732.642,4.082,1.019.47.129.612.037.661-.432A32.889,32.889,0,0,0,130,98.62c-.074-1.606.543-2.116,2.094-1.771a202.268,202.268,0,0,1,25.306,7.834c2.729,1,5.443,2.02,8.184,2.983a2.449,2.449,0,0,1,1.7,1.879,17.763,17.763,0,0,1,.268,5.248,86.05,86.05,0,0,1-1.059,10.769c-.1.523.137.642.549.792a11.043,11.043,0,0,0,13.7-5.171,15.524,15.524,0,0,0,1.649-5.169,1.086,1.086,0,0,0-.167-.8c-.559-.906-.1-1.679.987-1.58,1.139.106,2.266.37,3.4.564,8.219,1.388,16.482,2.49,24.743,3.618a14.289,14.289,0,0,1,3.291.984c1.364.541,1.544.829,1.416,2.323-.281,3.342-.528,6.691-.906,10.022a68.184,68.184,0,0,1-4.63,18.416c-4.008,9.751-11.379,15.632-21.251,18.677a33.128,33.128,0,0,1-29.609-3.76,53.157,53.157,0,0,1,.84,5.344c.344,3.63.484,7.269.6,10.907a1.437,1.437,0,0,0,.515,1.253A225.969,225.969,0,0,0,182.9,197.334a77.816,77.816,0,0,0,7.362,3.9c.43.2.87.4,1.281.646a2.237,2.237,0,0,1,1.045,3.168,8.245,8.245,0,0,1-1.944,2.706c-1.487,1.494-3.005,2.96-4.5,4.444q-13.382,13.271-26.478,26.815a1.661,1.661,0,0,1-2.076.389,41.41,41.41,0,0,1-5.06-2.714,197.714,197.714,0,0,1-31.545-23.633,77.6,77.6,0,0,1-8.44-9.159.976.976,0,0,0-1.337-.4,104.954,104.954,0,0,1-18.827,5.067c-.366.058-.744.053-.872.571-1.316,5.34-3.352,10.444-5.064,15.654-.943,2.88-1.975,5.729-3.046,8.566-.7,1.888-1.9,2.324-3.712,1.456a21.769,21.769,0,0,1-2-1.139,32.764,32.764,0,0,0-18.433-5.206c-4.759.129-9.526.317-14.285.169-5.21-.162-10.4-.58-15.383-2.3a26.225,26.225,0,0,1-10.821-6.849c-.391-.418-.748-.872-1.122-1.31a1.87,1.87,0,0,1-.1-2.454c1.355-2.138,2.943-4.1,4.421-6.144,3.882-5.352,7.974-10.555,11.278-16.3.488-.861.973-1.725,1.431-2.6.888-1.685,1.685-1.911,3.287-.844,1.355.9,2.741,1.76,4.175,2.523a18.124,18.124,0,0,0,6.557,2.071m76.443-1.543a44.642,44.642,0,0,1-15.12,3.05,42.366,42.366,0,0,1-19.149-3.886c-.537-.255-.7-.088-.916.341a19.911,19.911,0,0,1-3.947,5.728A32.756,32.756,0,0,1,72.3,205.64c-.251.069-.568.015-.714.357a38.3,38.3,0,0,0,10.038,1.4,70.226,70.226,0,0,0,18.8-2.658c6.587-1.746,13.033-3.855,18.937-7.349a28.541,28.541,0,0,0,5.928-4.329c.088-.033.173-.1.088-.178-.031-.038-.15,0-.233.006m-58.62-14.665c.295-.1.512-.146.71-.229,2.058-.87,4.127-1.721,6.169-2.623,7.423-3.274,14.876-6.479,22-10.384a2.033,2.033,0,0,1,2.851.407c2.856,2.7,5.774,5.331,8.787,7.859a143.455,143.455,0,0,0,18.125,12.514c.383.231.6.279.939-.139.755-.946,1.557-1.859,2.252-2.86a110.8,110.8,0,0,1,10.431-12.748,3.446,3.446,0,0,1,4.235-.9,25.282,25.282,0,0,1,5.165,2.915c3.239,2.336,6.446,4.719,9.68,7.064.347.253.7.823,1.086.643.458-.22.045-.8.072-1.226.013-.255-.014-.511-.018-.768a68.72,68.72,0,0,0-1.575-14.4,2.371,2.371,0,0,0-.832-1.325c-1.082-.917-2.363-1.664-2.992-3.036-.162-.361-.321-.766-.067-1.085.323-.409.727-.048,1.029.106a18.875,18.875,0,0,1,3.513,2.776,30.1,30.1,0,0,0,19.339,7.254,36.535,36.535,0,0,0,13.878-2.583,29.484,29.484,0,0,0,17.6-17.074c3.455-8.435,4.475-17.308,5.122-26.269.048-.66.488-1.437.1-1.95-.44-.572-1.334-.082-1.993-.3a.417.417,0,0,0-.092-.024c-3.183-.416-6.373-.812-9.553-1.25-2.9-.4-5.787-.827-8.678-1.269-2.984-.456-5.961-.926-8.937-1.43-.576-.1-.744.024-.711.6a8.854,8.854,0,0,1-.617,3.261,13.034,13.034,0,0,1-15.837,8.835c-1.619-.391-1.619-.391-2.033,1.234-.034.126-.074.246-.114.365-4.316,12.682-9.984,24.547-20.211,33.691a1.472,1.472,0,0,1-2.094.2c-4.118-2.641-8.4-4.988-12.746-7.228-5.448-2.8-11.062-5.152-17.206-5.942-1.142-.147-2.344-.552-3.474-.075-.649.273-.732.016-.806-.46a2.687,2.687,0,0,1,.18-1.4c1.13-3.077,3.138-5.621,5-8.25a101.006,101.006,0,0,0,10.041-16.96,68.643,68.643,0,0,0,5.034-17.031c.11-.669-.056-1-.726-1.139a27.822,27.822,0,0,1-2.869-.683.717.717,0,0,0-.993.425,24.711,24.711,0,0,1-2.961,4.328c-2.372,2.763-5.043,5.194-8.534,6.428a23.239,23.239,0,0,1-14.541.249,17.538,17.538,0,0,1-7.78-4.253,1.625,1.625,0,0,0-1.887-.506,35.748,35.748,0,0,0-13.795,8.26,66.246,66.246,0,0,0-7.7,9.125c-1.795,2.389-3.247,5.04-5.267,7.247a1.754,1.754,0,0,0-.4,2.222c.067.143.119.3.182.443a25.129,25.129,0,0,0,1.173,2.606c.256.452.4,1.026-.156,1.365a.926.926,0,0,1-1.255-.363,5.109,5.109,0,0,1-.589-.861,25.784,25.784,0,0,1-2.671-10.355,64.239,64.239,0,0,1,.809-13.06c.1-.721-.115-.682-.612-.541a79.082,79.082,0,0,1-14.163,2.426c-5.329.51-10.68.808-16.022,1.173-.51.038-.783.238-.863.7-.095.566-.166,1.138-.22,1.708-.33,3.566-.162,7.148-.33,10.721a94.062,94.062,0,0,0,.282,11.772,37,37,0,0,0,2.526,11.4c3.376,8.125,9.588,12.495,18.231,13.335a36.944,36.944,0,0,0,14.264-1.531c1.523-.457,3.085-.747,4.639-1.058.254-.051.964-.191.76.253a8.681,8.681,0,0,0-.357,2.213,65.518,65.518,0,0,0-.924,7.45m74.847-7.439c-.5-.063-.779.376-1.108.7-4.7,4.655-8.415,10.11-12.475,15.282-.149.187-.312.369.022.517.634.275,1.126.816,1.9.829,1.1.02,1.539.88.889,1.769a28.308,28.308,0,0,1-5.488,6.109,50.332,50.332,0,0,1-10.319,6.021c-.654.287-.825.456-.29,1.092,1.748,2.082,3.507,4.152,5.439,6.066a173.3,173.3,0,0,0,24.152,19.611,131.482,131.482,0,0,0,13.333,8.3.986.986,0,0,0,1.4-.166c9.89-10.173,19.844-20.294,29.986-30.22a13.681,13.681,0,0,0,1.5-1.741c.7-.979.664-1.139-.4-1.617a101.5,101.5,0,0,1-17.75-10.748c-7.163-5.146-13.914-10.841-21.094-15.966a55.025,55.025,0,0,0-7.911-5.2,7.235,7.235,0,0,0-1.779-.639m-30.123-22.154A39.57,39.57,0,0,1,122.2,150.97c7.792,2.8,14.912,6.933,21.926,11.249.739.454,1.029.338,1.478-.29,1.17-1.63,2.433-3.2,3.617-4.827,8.418-11.544,15.243-23.76,16.034-38.481a44.739,44.739,0,0,0,.155-8.035,1.239,1.239,0,0,0-.943-1.142c-4.056-1.448-8.091-2.945-12.144-4.4a183.581,183.581,0,0,0-19.392-5.908c-.51-.123-.83-.293-.875.542a70.127,70.127,0,0,1-4.241,20.74c-2.9,7.854-7.243,14.9-12.078,21.679-1.5,2.1-2.923,4.247-4.489,6.533M89.371,209.459c.076-.459-.157-.429-.4-.4-.512.055-1.016.1-1.528.148a47.1,47.1,0,0,1-14.67-.78,42.243,42.243,0,0,1-18-9.169c-1.712-1.419-3.446-2.6-5.778-2.478a1.06,1.06,0,0,1-.189-.036,28.344,28.344,0,0,1-11.523-4.914c-.512-.343-.726-.354-1.043.247a80.028,80.028,0,0,1-6.081,9.738q-5.141,7.1-10.35,14.152c-.567.766-.414,1.225.172,1.856A25.174,25.174,0,0,0,32.4,225.048a51.67,51.67,0,0,0,12.81,1.528c5.016.031,10.033-.1,15.048-.142A31.908,31.908,0,0,1,74.424,229.6c1.937.92,3.775,2,5.615,3.094,1.139.681,1.231.645,1.671-.577,2.627-7.358,5.188-14.741,7.52-22.2.058-.182.11-.366.141-.458M45.656,189.223c2.478,2.051,4.761,4,7.111,5.863,3.951,3.139,7.854,6.354,12.439,8.572.317.152.665.411.967.38,1.559-.158,3.138.211,4.679-.2,7.722-2.053,14.343-5.574,17.771-13.343.027-.061.054-.119.085-.174a1.354,1.354,0,0,1,2.146-.614,19.951,19.951,0,0,0,2.93,1.4,42.173,42.173,0,0,0,25.6,1.463,31.013,31.013,0,0,0,8.043-3.13c-.442-.255-.8-.46-1.154-.672A163.206,163.206,0,0,1,109.6,177.893a146.293,146.293,0,0,1-12.339-10.638,1,1,0,0,0-1.456-.16c-1.179.7-2.4,1.322-3.63,1.929-12.752,6.277-25.917,11.6-39.017,17.07-2.442,1.02-4.884,2.038-7.5,3.129" fill="#0f2347" fill-rule="evenodd"/>
          <path id="パス_31" data-name="パス 31" d="M87.643,39.2a53.5,53.5,0,0,1,9.6,1.927,115.531,115.531,0,0,1,21.642,7.88,32.729,32.729,0,0,1,8.644,5.78,8.753,8.753,0,0,1,2.874,6.745,13.887,13.887,0,0,0,2.247,8.086,18.761,18.761,0,0,1,1.731,3.3c.81,2.1.493,3.311-1.228,4.743a14.907,14.907,0,0,1-2.727,1.772c-3.428,1.778-6.857,3.56-10.3,5.309a4.3,4.3,0,0,0-1.8,1.624,16.236,16.236,0,0,1-4.374,4.65,5.524,5.524,0,0,1-3.431,1.291c-.546-.012-.467.22-.318.581a25.227,25.227,0,0,0,7.164,10.369c.458.377.977.779.562,1.428s-1.063.44-1.635.19a5.015,5.015,0,0,1-1.447-1.085,29.155,29.155,0,0,1-7.037-11.5,3.951,3.951,0,0,1-.2-.836c-.143-1.326.647-1.954,1.88-1.441a2.416,2.416,0,0,0,2.3-.084,13.868,13.868,0,0,0,6.786-9.528c.487-2.662-1.106-4.072-3.731-3.436a19.268,19.268,0,0,0-5.693,2.448,1.681,1.681,0,0,0-.675.891,5.8,5.8,0,0,1-.6,1.19.867.867,0,0,1-1.1.33.88.88,0,0,1-.572-1,7.542,7.542,0,0,1,.307-1.1c.8-2.391,1.58-4.787,2.411-7.162a6.513,6.513,0,0,0-.259-4.843,16.405,16.405,0,0,0-9.217-9.355c-2.98-1.228-6.021-2.287-9.069-3.324a10.445,10.445,0,0,1-7.482-9.463,15.517,15.517,0,0,1-.126-2.481c.18-2.827,1.46-3.953,4.885-3.894" fill="#0f2347" fill-rule="evenodd"/>
          <path id="パス_32" data-name="パス 32" d="M193.047,102.514c-5.315,2.114-10.186,4.871-13.794,9.494-1.47,1.885-2.667,1.766-3.73-.361q-4.185-8.348-7.746-16.976-4.414-10.609-8.29-21.42a7.037,7.037,0,0,1-.317-1c-.166-.837.243-1.336,1.065-1.256.326.035.51.028.714-.26,4.413-6.356,10.393-10.944,16.909-14.9,3.495-2.123,7.045-4.141,10.433-6.433a56.434,56.434,0,0,0,15.392-15.455,11.78,11.78,0,0,1,1.157-1.527,1.8,1.8,0,0,1,2.65-.245,12.8,12.8,0,0,1,1.279,1.155c5.906,5.681,11.159,11.964,16.528,18.131,3.824,4.387,7.542,8.859,11.339,13.262a2.322,2.322,0,0,1,.4,2.8,61.927,61.927,0,0,1-14.067,19.668,21.639,21.639,0,0,1-5.51,3.607c-.475.22-.708.393-.5.98a22.5,22.5,0,0,1-.265,15.571c-1.02,2.852-1.944,5.739-2.943,8.6-.247.705-.445,1.584-1.517,1.345-.7-.156-.809-.847-.4-2.055,1.065-3.142,2.108-6.292,3.2-9.425a21.059,21.059,0,0,0-.391-14.619c-1.236-3.356-2.793-6.583-3.876-9.991-.125-.389-.568-.937-.089-1.2.444-.235.721.385.977.717a27.642,27.642,0,0,1,4.109,7.645c.247.7.519.775,1.157.456a27.688,27.688,0,0,0,8.2-6.675A66.123,66.123,0,0,0,234.9,67.311a1.384,1.384,0,0,0-.233-1.76Q224,52.841,212.9,40.518c-1.861-2.062-3.894-3.965-5.8-5.987-.629-.664-.956-.626-1.451.135A56.9,56.9,0,0,1,192.344,49a92.909,92.909,0,0,1-11.5,7.42c-7.194,3.95-13.188,9.41-19.067,15.014a1,1,0,0,0-.33,1.242,376.33,376.33,0,0,0,15.241,36.762c.234.486.5.957.775,1.483.674-.766,1.285-1.5,1.935-2.193a32.263,32.263,0,0,1,10.567-7.144,25.966,25.966,0,0,1,3.806-1.558.7.7,0,0,0,.5-.508,5.882,5.882,0,0,0,.343-3.468,46.214,46.214,0,0,0-1.633-5.8c-.089-.24-.157-.487-.233-.728-.2-.63-.259-1.261.5-1.523.7-.244,1.059.273,1.306.827a30.313,30.313,0,0,1,2.244,8.088A6.541,6.541,0,0,1,196.26,100a29.18,29.18,0,0,0-1.813,10.321,19.019,19.019,0,0,1-.339,2.75c-.03.224-.075.47-.335.532-.312.072-.467-.166-.58-.394a7.512,7.512,0,0,1-.779-3.235,30.59,30.59,0,0,1,.824-7.215c.135-.234.126-.362-.191-.249" fill="#0f2347" fill-rule="evenodd"/>
          <path id="パス_33" data-name="パス 33" d="M101.671,97.15a5.3,5.3,0,0,1-2.937.592c-1.056.046-1.074.033-.65,1.041a63.582,63.582,0,0,0,3.541,6.9,6.63,6.63,0,0,1,.876,2.315c.036.259.057.52-.189.7s-.488.042-.708-.091a4.156,4.156,0,0,1-1.532-1.555c-1.609-2.867-3.326-5.687-4.148-8.913-.153-.591-.56-.532-.938-.594a31.5,31.5,0,0,1-10.182-3.5c-7.265-4-10.213-11.126-7.951-19.1a46.978,46.978,0,0,1,3.106-7.817c1.289-2.64,2.635-5.249,3.961-7.87.087-.171.194-.332.295-.494.351-.564.814-.995,1.5-.617.727.405.6,1.07.247,1.668-.951,1.592-1.716,3.28-2.547,4.933a59.3,59.3,0,0,0-4.622,10.914c-1.917,7.009.616,13.026,6.954,16.564a35.474,35.474,0,0,0,10.569,3.565c1.474.292,2.933.633,4.4.95a1.492,1.492,0,0,1,.956.422" fill="#0f2347" fill-rule="evenodd"/>
          <path id="パス_34" data-name="パス 34" d="M93.872,64.028a16.8,16.8,0,0,1-5.387,10.738c-.825.751-1.472,1.451-1.182,2.687.1.411.114,1.082-.494,1.2-.576.1-.922-.407-1.108-.885a2.964,2.964,0,0,1,.333-3.082,8.677,8.677,0,0,1,1.221-1.21,14.992,14.992,0,0,0,5.21-9.819c.018-.158.021-.319.052-.475.084-.394.229-.772.722-.737.435.031.55.385.59.753.025.191.021.382.043.833" fill="#0f2347" fill-rule="evenodd"/>
          <path id="パス_35" data-name="パス 35" d="M25.455,95.321a38.72,38.72,0,0,1,.9-7.295c.163-.664.238-1.673,1.249-1.49,1,.183.629,1.122.546,1.763a83.983,83.983,0,0,0-.674,8.765,6.074,6.074,0,0,1-.369,1.964c-.1.284-.135.705-.532.7-.357-.006-.493-.371-.634-.657a4.488,4.488,0,0,1-.483-2.026c0-.575,0-1.149,0-1.721" fill="#0f2347" fill-rule="evenodd"/>
          <path id="パス_36" data-name="パス 36" d="M84.6,81.6a10.433,10.433,0,0,1,8.317,4.6,2.367,2.367,0,0,1,.2.324c.272.594.814,1.282.058,1.793-.819.552-1.149-.275-1.527-.805a8.971,8.971,0,0,0-7.282-3.962c-.128,0-.256,0-.384,0-.638-.048-1.442-.024-1.435-.887.015-.824.772-1,1.48-1.053.189-.014.378,0,.571,0" fill="#0f2347" fill-rule="evenodd"/>
          <path id="パス_37" data-name="パス 37" d="M29.736,95.165a32.783,32.783,0,0,1,.586-5.709,8.546,8.546,0,0,1,.339-1.191c.167-.459.475-.792,1-.7a.875.875,0,0,1,.7,1.082c-.1.982-.232,1.958-.369,2.936-.3,2.217-.1,4.459-.343,6.677a2.382,2.382,0,0,1-.07.568c-.159.424.07,1.157-.488,1.225-.635.075-.757-.66-.968-1.135a8.9,8.9,0,0,1-.393-3.756" fill="#0f2347" fill-rule="evenodd"/>
          <path id="パス_38" data-name="パス 38" d="M210.744,90.391c-.04.653.011,1.078-.422,1.27s-.717-.139-.989-.406a3.455,3.455,0,0,1-.815-1.392,43.977,43.977,0,0,0-2.86-7.192.951.951,0,0,1,.195-1.371.834.834,0,0,1,1.258.259,33.946,33.946,0,0,1,3.633,8.832" fill="#0f2347" fill-rule="evenodd"/>
          <path id="パス_39" data-name="パス 39" d="M206.4,91.878c-.031.462,0,.847-.378,1.032-.418.2-.736-.057-1.022-.315a3.382,3.382,0,0,1-.849-1.368c-.889-2.183-1.782-4.361-2.662-6.545a3.054,3.054,0,0,1-.238-.915.868.868,0,0,1,1.426-.7,2.538,2.538,0,0,1,.524.669,58.472,58.472,0,0,1,3.075,7.4,3.973,3.973,0,0,1,.124.737" fill="#0f2347" fill-rule="evenodd"/>
          <path id="パス_40" data-name="パス 40" d="M36.578,93.395c0,1.181.013,2.36-.009,3.541a4.269,4.269,0,0,1-.321,1.778c-.272.6-.686.63-1.126.192a2.127,2.127,0,0,1-.586-1.575c.009-2.59.2-5.17.418-7.747.053-.614.321-1.173,1.056-1.109s.846.664.84,1.283v3.637Z" fill="#0f2347" fill-rule="evenodd"/>
          <path id="パス_41" data-name="パス 41" d="M202.323,94.138c-.016.313-.013.823-.541.974-.466.132-.762-.261-1.007-.589a4.925,4.925,0,0,1-.564-.991q-1.173-2.768-2.332-5.548a6.629,6.629,0,0,1-.312-.9.895.895,0,0,1,1.667-.651c.323.583.616,1.188.889,1.795.634,1.428,1.25,2.863,1.867,4.294a3.625,3.625,0,0,1,.333,1.618" fill="#0f2347" fill-rule="evenodd"/>
          <path id="パス_42" data-name="パス 42" d="M98.308,72.826a3.684,3.684,0,0,1-1.544,2.662,1.273,1.273,0,0,1-1.527.09,1.3,1.3,0,0,1-.533-1.516,4.03,4.03,0,0,1,1.7-2.347,1.115,1.115,0,0,1,1.252-.178,1.344,1.344,0,0,1,.647,1.289" fill="#0f2347" fill-rule="evenodd"/>
          <path id="パス_43" data-name="パス 43" d="M88.03,68.884a3.537,3.537,0,0,1-.9,2.224,1.311,1.311,0,0,1-1.548.412,1.268,1.268,0,0,1-.806-1.29,3.593,3.593,0,0,1,1.267-2.669.953.953,0,0,1,1.145-.2,1.649,1.649,0,0,1,.845,1.527" fill="#0f2347" fill-rule="evenodd"/>
          <path id="パス_44" data-name="パス 44" d="M100.8,65.511a2.645,2.645,0,0,0,.721,2.224c.314.313.656.73.243,1.161-.43.447-.937.262-1.373-.076a4.026,4.026,0,0,1-1-4.205c.159-.348.388-.6.793-.563s.571.368.616.739a6.7,6.7,0,0,1,0,.72" fill="#0f2347" fill-rule="evenodd"/>
          <path id="パス_45" data-name="パス 45" d="M89.706,62.054a2.024,2.024,0,0,1-1.48-.552.741.741,0,0,1-.153-.884.6.6,0,0,1,.809-.307,3.294,3.294,0,0,0,2.241.035.55.55,0,0,1,.673.22.6.6,0,0,1-.181.773,2.546,2.546,0,0,1-1.909.715" fill="#0f2347" fill-rule="evenodd"/>
          <path id="パス_46" data-name="パス 46" d="M66.525,178.219a65.518,65.518,0,0,1,.924-7.45,8.681,8.681,0,0,1,.357-2.213c.2-.444-.506-.3-.76-.253-1.554.31-3.116.6-4.639,1.058a36.942,36.942,0,0,1-14.264,1.531c-8.643-.84-14.855-5.21-18.231-13.335a37,37,0,0,1-2.526-11.4,94.062,94.062,0,0,1-.282-11.772c.168-3.573,0-7.155.33-10.721.054-.57.125-1.142.22-1.708.08-.459.353-.659.864-.7,5.341-.365,10.692-.663,16.021-1.173A79.051,79.051,0,0,0,58.7,117.664c.5-.141.717-.18.612.541a64.239,64.239,0,0,0-.809,13.06,25.784,25.784,0,0,0,2.671,10.355,5.009,5.009,0,0,0,.59.86.923.923,0,0,0,1.254.363c.558-.338.412-.912.157-1.364A24.927,24.927,0,0,1,62,138.873c-.063-.148-.115-.3-.182-.443a1.755,1.755,0,0,1,.4-2.222c2.02-2.207,3.473-4.858,5.268-7.247a66.169,66.169,0,0,1,7.695-9.125,35.748,35.748,0,0,1,13.795-8.26,1.623,1.623,0,0,1,1.887.506,17.538,17.538,0,0,0,7.78,4.253,23.239,23.239,0,0,0,14.541-.249c3.491-1.234,6.162-3.665,8.534-6.428a24.711,24.711,0,0,0,2.961-4.328.717.717,0,0,1,.993-.425,27.822,27.822,0,0,0,2.869.683c.67.134.836.47.726,1.139a68.643,68.643,0,0,1-5.034,17.031,101.006,101.006,0,0,1-10.041,16.96c-1.86,2.629-3.868,5.173-5,8.25a2.687,2.687,0,0,0-.18,1.4c.074.476.157.733.806.46,1.13-.477,2.332-.073,3.474.075,6.144.79,11.758,3.14,17.206,5.942,4.343,2.24,8.628,4.587,12.746,7.227a1.471,1.471,0,0,0,2.094-.2c10.228-9.144,15.9-21.009,20.212-33.691.039-.119.079-.239.113-.365.415-1.625.415-1.625,2.033-1.234a13.034,13.034,0,0,0,15.837-8.835,8.854,8.854,0,0,0,.617-3.261c-.033-.572.135-.693.711-.6,2.976.5,5.953.974,8.937,1.43,2.891.442,5.782.873,8.678,1.269,3.18.438,6.37.834,9.553,1.25a.417.417,0,0,1,.092.024c.659.215,1.553-.275,1.993.3.391.513-.049,1.29-.1,1.95-.647,8.961-1.667,17.834-5.122,26.269a29.484,29.484,0,0,1-17.6,17.074,36.535,36.535,0,0,1-13.878,2.583,30.1,30.1,0,0,1-19.339-7.254A18.875,18.875,0,0,0,154.567,158c-.3-.154-.706-.515-1.029-.106-.254.319-.1.724.067,1.085.629,1.372,1.91,2.118,2.992,3.036a2.372,2.372,0,0,1,.832,1.324,68.737,68.737,0,0,1,1.575,14.4c0,.257.031.513.018.768-.027.425.386,1.006-.072,1.226-.382.18-.739-.39-1.086-.643-3.234-2.345-6.441-4.728-9.68-7.064a25.282,25.282,0,0,0-5.165-2.915,3.446,3.446,0,0,0-4.235.9,110.8,110.8,0,0,0-10.431,12.748c-.695,1-1.5,1.914-2.252,2.86-.336.418-.555.37-.939.139a143.455,143.455,0,0,1-18.125-12.514c-3.013-2.528-5.931-5.16-8.787-7.859a2.033,2.033,0,0,0-2.851-.407c-7.119,3.9-14.572,7.11-22,10.384-2.042.9-4.111,1.753-6.169,2.623-.2.083-.415.134-.71.229" fill="#e86b65" fill-rule="evenodd"/>
          <path id="パス_47" data-name="パス 47" d="M56.44,11.435a9.753,9.753,0,0,1,4.116-9.072c4.927-3.7,12.5-3.3,15.214,2.921a8.042,8.042,0,0,1-.126,6.905c-.9,2.228-2,1.689-2.5,4.824-.5,3.08.659,3.348.821,4.911.364,3.51-3.548,5.052-5.449,1.426-1.17-2.3-.442-6.888.358-9,.955-2.358,3.421-6.392-.548-7.833a4.888,4.888,0,0,0-6.273,5.757c.361,1.643,3.538,5.158-.514,7.206-2.277,1.154-4.7-3.986-5.1-8.049" fill="#e86b65" fill-rule="evenodd"/>
          <path id="パス_48" data-name="パス 48" d="M71.036,34.708a4.088,4.088,0,0,1-.016-5.03c1.861-2.573,6.174-2.469,6.6,1.11.2,1.836-.211,3.924-2.069,4.72a3.564,3.564,0,0,1-4.518-.8" fill="#e86b65" fill-rule="evenodd"/>
          <path id="パス_49" data-name="パス 49" d="M54.093,19.269c-1.036-1.882-6.243-11.9-9.195-6.934-1.387,2.338,1.527,6.828,3.125,9.451a50.775,50.775,0,0,0,6.847,8.882c.75.743,4.26,3.729,3.952,2.178a50.307,50.307,0,0,0-4.729-13.577" fill="#e86b65" fill-rule="evenodd"/>
          <path id="パス_50" data-name="パス 50" d="M60.944,42.369a4.086,4.086,0,0,1-2.381-4.429c.432-3.146,4.285-5.085,6.347-2.128,1.045,1.524,1.659,3.561.4,5.139a3.565,3.565,0,0,1-4.364,1.418" fill="#e86b65" fill-rule="evenodd"/>
          <path id="パス_51" data-name="パス 51" d="M164.667,26.386a9.756,9.756,0,0,1,9.962.011c5.4,2.966,8.16,10.032,3.612,15.066a8.045,8.045,0,0,1-6.344,2.732c-2.4.094-2.362-1.125-5.428-.292-3.011.815-2.777,1.979-4.134,2.772-3.049,1.78-6.066-1.15-3.547-4.378,1.611-2.011,6.1-3.24,8.344-3.381,2.541-.1,7.234.482,6.912-3.728a4.888,4.888,0,0,0-7.831-3.341c-1.35,1.005-3.242,5.348-6.778,2.5-1.989-1.6,1.693-5.927,5.232-7.962" fill="#0f2347" fill-rule="evenodd"/>
          <path id="パス_52" data-name="パス 52" d="M149.482,49.277a4.091,4.091,0,0,1,4.576-2.087c3.11.634,4.793,4.608,1.71,6.473-1.59.941-3.662,1.426-5.154.062a3.563,3.563,0,0,1-1.132-4.448" fill="#0f2347" fill-rule="evenodd"/>
          <path id="パス_53" data-name="パス 53" d="M156.562,27.478c1.288-1.719,8.274-10.593,2.528-11.235-2.7-.3-5.592,4.207-7.323,6.744a50.842,50.842,0,0,0-5.27,9.9c-.368.99-1.64,5.42-.355,4.5a50.253,50.253,0,0,0,10.42-9.9" fill="#0f2347" fill-rule="evenodd"/>
          <path id="パス_54" data-name="パス 54" d="M138.341,43.242a4.086,4.086,0,0,1,3.053-3.995c3.046-.9,6.4,1.809,4.556,4.907-.957,1.58-2.559,2.979-4.518,2.48a3.564,3.564,0,0,1-3.091-3.392" fill="#0f2347" fill-rule="evenodd"/>
        </g>
      </g>
    </g>
  </g>
</svg>
