<svg xmlns="http://www.w3.org/2000/svg" xmlns:xlink="http://www.w3.org/1999/xlink" width="112.817" height="112.816" viewBox="0 0 112.817 112.816">
  <defs>
    <clipPath id="clip-path">
      <rect id="長方形_83" data-name="長方形 83" width="71.126" height="62.44" fill="#f1ede8"/>
    </clipPath>
  </defs>
  <g id="グループ_685" data-name="グループ 685" transform="translate(-212 -10082.66)">
    <circle id="楕円形_24" data-name="楕円形 24" cx="56.408" cy="56.408" r="56.408" transform="translate(212 10195.477) rotate(-90)" fill="#a20000"/>
    <g id="グループ_43" data-name="グループ 43" transform="translate(232.937 10107.848)">
      <g id="グループ_42" data-name="グループ 42" clip-path="url(#clip-path)">
        <path id="パス_427" data-name="パス 427" d="M1.54,50.516a1.434,1.434,0,0,0,.276,1.743,1.456,1.456,0,0,0,1,.392,1.425,1.425,0,0,0,.755-.218L14.51,45.694a33.7,33.7,0,0,0,6.449,2.426C25.418,54.9,34.307,59.536,44.5,59.536A31.558,31.558,0,0,0,58.839,56.18L68.8,62.324a.769.769,0,0,0,.392.117.736.736,0,0,0,.639-1.075l-5.04-9.383a19.039,19.039,0,0,0,6.333-13.8c0-6.8-3.965-12.854-10.153-16.761C59,9.354,46.144,0,30.618,0,13.74,0,0,11.082,0,24.691A21.9,21.9,0,0,0,6.986,40.363ZM2.9,24.691C2.9,12.68,15.338,2.9,30.618,2.9c13.057,0,24.023,7.131,26.957,16.689a17.135,17.135,0,0,1,.77,5.1c0,12.012-12.433,21.787-27.727,21.787a33.563,33.563,0,0,1-11.547-2,28.888,28.888,0,0,1-3.936-1.729,1.518,1.518,0,0,0-1.452.044l-7.03,4.343,3.413-6.376a1.459,1.459,0,0,0-.3-1.772C5.345,35,2.9,29.935,2.9,24.691" fill="#f1ede8"/>
        <path id="パス_428" data-name="パス 428" d="M90.383,144.956A3.185,3.185,0,1,0,87.2,141.77a3.185,3.185,0,0,0,3.186,3.186" transform="translate(-73.125 -116.22)" fill="#f1ede8"/>
        <path id="パス_429" data-name="パス 429" d="M174.8,144.956a3.185,3.185,0,1,0-3.186-3.186,3.185,3.185,0,0,0,3.186,3.186" transform="translate(-143.918 -116.22)" fill="#f1ede8"/>
        <path id="パス_430" data-name="パス 430" d="M259.218,144.956a3.185,3.185,0,1,0-3.186-3.186,3.185,3.185,0,0,0,3.186,3.186" transform="translate(-214.713 -116.22)" fill="#f1ede8"/>
      </g>
    </g>
  </g>
</svg>
