<svg xmlns="http://www.w3.org/2000/svg" xmlns:xlink="http://www.w3.org/1999/xlink" width="112.817" height="112.816" viewBox="0 0 112.817 112.816">
  <defs>
    <clipPath id="clip-path">
      <rect id="長方形_84" data-name="長方形 84" width="71" height="70.999" fill="#f1ede8"/>
    </clipPath>
  </defs>
  <g id="グループ_688" data-name="グループ 688" transform="translate(-582.275 -10298.545)">
    <circle id="楕円形_29" data-name="楕円形 29" cx="56.408" cy="56.408" r="56.408" transform="translate(582.275 10411.361) rotate(-90)" fill="#a20000"/>
    <g id="グループ_46" data-name="グループ 46" transform="translate(603.183 10317.738)">
      <g id="グループ_45" data-name="グループ 45" clip-path="url(#clip-path)">
        <path id="パス_433" data-name="パス 433" d="M48.387,49.035a1.687,1.687,0,0,0-2.386,0L4.322,90.715c0,.006,0,.011-.009.016a1.583,1.583,0,0,0-.323.484,1,1,0,0,0-.05.13,1.218,1.218,0,0,0-.068.186L.042,108.116a1.689,1.689,0,0,0,2.026,2.024l16.585-3.83a1.8,1.8,0,0,0,.17-.063c.048-.017.093-.031.14-.053a1.7,1.7,0,0,0,.489-.325.036.036,0,0,1,.014-.009L61.146,64.182a1.687,1.687,0,0,0,0-2.386ZM9.263,105.016l-4.1-4.1,1.307-5.666,8.457,8.455Z" transform="translate(0 -39.184)" fill="#f1ede8"/>
        <path id="パス_434" data-name="パス 434" d="M282.458,13.256,269.7.495a1.687,1.687,0,0,0-2.386,0L263.06,4.746a1.687,1.687,0,0,0,0,2.386l12.759,12.761a1.689,1.689,0,0,0,2.386,0l4.253-4.252a1.685,1.685,0,0,0,0-2.386" transform="translate(-211.954 0)" fill="#f1ede8"/>
      </g>
    </g>
  </g>
</svg>
