<svg xmlns="http://www.w3.org/2000/svg" xmlns:xlink="http://www.w3.org/1999/xlink" width="112.817" height="112.816" viewBox="0 0 112.817 112.816">
  <defs>
    <clipPath id="clip-path">
      <rect id="長方形_85" data-name="長方形 85" width="64.487" height="76.75" fill="#f1ede8"/>
    </clipPath>
  </defs>
  <g id="グループ_689" data-name="グループ 689" transform="translate(-705.092 -10082.66)">
    <circle id="楕円形_27" data-name="楕円形 27" cx="56.408" cy="56.408" r="56.408" transform="translate(705.092 10195.477) rotate(-90)" fill="#a20000"/>
    <g id="グループ_48" data-name="グループ 48" transform="translate(804.924 10159.682) rotate(160)">
      <g id="グループ_47" data-name="グループ 47" clip-path="url(#clip-path)">
        <path id="パス_435" data-name="パス 435" d="M54.372,206.792h5.567a1.864,1.864,0,0,0,1.865-1.865v-21.1H77.742a4.846,4.846,0,0,0,4.847-4.846V168.654H31.72v10.329a4.846,4.846,0,0,0,4.847,4.846h15.94v21.1a1.864,1.864,0,0,0,1.865,1.865" transform="translate(-24.458 -130.042)" fill="#f1ede8"/>
        <path id="パス_436" data-name="パス 436" d="M59.262,35.206l5.211-32.06A1.145,1.145,0,0,0,62.849,1.93s-.317.151-.835.383c-.776.349-1.99.872-3.169,1.3a10.769,10.769,0,0,1-2.772.729A7.224,7.224,0,0,0,54.326,2.98a7.039,7.039,0,0,0-3.381-.734c-.713,0-1.319-.017-1.93-.018a19.605,19.605,0,0,0-5.857.914,4.83,4.83,0,0,1-1.3.2,4.774,4.774,0,0,1-2.391-.851,8.61,8.61,0,0,0-4.339-1.116A10.688,10.688,0,0,1,31.772.743,11.194,11.194,0,0,0,28.433,0,5.147,5.147,0,0,0,24.7,1.713,4.563,4.563,0,0,1,21.2,3.1c-1.725.017-3.764-.636-5.953-.654a9.11,9.11,0,0,0-3.658.616,3.711,3.711,0,0,1-1.686.453,4.993,4.993,0,0,0-2.6.893c-.312.19-.577.356-.771.451l-.221.093-.033.008-.049-.041A3.742,3.742,0,0,0,4.5,3.98a6.812,6.812,0,0,0-1.7-.2,9.936,9.936,0,0,0-1.894.186A1.143,1.143,0,0,0,.024,5.316L6.141,35.252a1.146,1.146,0,0,0,1.121.916H58.132a1.148,1.148,0,0,0,1.13-.961M36.2,22.755a25.271,25.271,0,0,1,7.638-.682c3.137,0,3.137.546,5.729,1.227s8.456-.682,8.456-.682l-1.5,9.821H9.193l-1.7-7.707a4.059,4.059,0,0,1,2.8-.886h4.637c1.909,0,10.5-1.5,13.913-1.5s3.819,1.228,7.365.409" transform="translate(0 0)" fill="#f1ede8"/>
      </g>
    </g>
  </g>
</svg>
