<svg xmlns="http://www.w3.org/2000/svg" xmlns:xlink="http://www.w3.org/1999/xlink" width="112.817" height="112.816" viewBox="0 0 112.817 112.816">
  <defs>
    <clipPath id="clip-path">
      <rect id="長方形_87" data-name="長方形 87" width="79.158" height="59.568" fill="#f1ede8"/>
    </clipPath>
  </defs>
  <g id="グループ_691" data-name="グループ 691" transform="translate(-952.275 -10082.66)">
    <circle id="楕円形_30" data-name="楕円形 30" cx="56.408" cy="56.408" r="56.408" transform="translate(952.275 10195.477) rotate(-90)" fill="#a20000"/>
    <g id="グループ_51" data-name="グループ 51" transform="translate(968.921 10110.664)">
      <g id="グループ_50" data-name="グループ 50" clip-path="url(#clip-path)">
        <path id="パス_439" data-name="パス 439" d="M276.905,41.425a32.35,32.35,0,0,0-15.71-4.355,25.122,25.122,0,0,0-18.549,8.178l.014.068V89.307c1.815-1.372,9.158-6.221,22.332-6.223a61.035,61.035,0,0,1,11.288,1.1.868.868,0,0,0,1.031-.854V42.159a.866.866,0,0,0-.407-.734" transform="translate(-198.153 -30.272)" fill="#f1ede8"/>
        <path id="パス_440" data-name="パス 440" d="M64.251,3.479A35.726,35.726,0,0,1,74.318,5c1.277.38,2.3.761,3,1.042.348.14.615.256.791.335l.193.088.044.021.006,0a1.74,1.74,0,0,0,1.529-3.127A38.986,38.986,0,0,0,64.251,0,30.449,30.449,0,0,0,52.467,2.278,29.711,29.711,0,0,0,42.146,9.553,29.691,29.691,0,0,0,31.823,2.278,30.436,30.436,0,0,0,20.041,0,38.979,38.979,0,0,0,4.413,3.365,1.74,1.74,0,1,0,5.942,6.491l.006,0A35.747,35.747,0,0,1,20.041,3.479,26.973,26.973,0,0,1,30.485,5.488a26.754,26.754,0,0,1,10.324,7.805c.036.043.086.061.124.1s.058.088.1.124a1.576,1.576,0,0,0,.165.089,1.634,1.634,0,0,0,.309.166,1.6,1.6,0,0,0,.312.091,1.684,1.684,0,0,0,.656,0,1.6,1.6,0,0,0,.312-.091,1.655,1.655,0,0,0,.308-.166,1.488,1.488,0,0,0,.165-.089,1.3,1.3,0,0,0,.1-.124c.039-.039.09-.057.125-.1A26.748,26.748,0,0,1,53.807,5.488,26.969,26.969,0,0,1,64.251,3.479" transform="translate(-2.806)" fill="#f1ede8"/>
        <rect id="長方形_86" data-name="長方形 86" width="6.375" height="44.125" transform="translate(36.392 15.443)" fill="#f1ede8"/>
        <path id="パス_441" data-name="パス 441" d="M.407,41.425A.866.866,0,0,0,0,42.159V83.33a.868.868,0,0,0,1.031.854,61.044,61.044,0,0,1,11.288-1.1,42.648,42.648,0,0,1,17.222,3.327,27.981,27.981,0,0,1,4.219,2.267c.388.256.671.462.891.629V45.316l.014-.068A25.122,25.122,0,0,0,16.117,37.07,32.35,32.35,0,0,0,.407,41.425" transform="translate(0 -30.272)" fill="#f1ede8"/>
      </g>
    </g>
  </g>
</svg>
