<svg xmlns="http://www.w3.org/2000/svg" xmlns:xlink="http://www.w3.org/1999/xlink" width="275" height="275" viewBox="0 0 275 275">
  <defs>
    <clipPath id="clip-path">
      <circle id="楕円形_40" data-name="楕円形 40" cx="137.5" cy="137.5" r="137.5" transform="translate(824 1210)" fill="#fff"/>
    </clipPath>
    <clipPath id="clip-path-2">
      <rect id="長方形_68" data-name="長方形 68" width="229.273" height="171.126" fill="none"/>
    </clipPath>
  </defs>
  <g id="グループ_683" data-name="グループ 683" transform="translate(-824 -1039)">
    <circle id="楕円形_2" data-name="楕円形 2" cx="137.5" cy="137.5" r="137.5" transform="translate(824 1039)" fill="#fff"/>
    <g id="マスクグループ_2" data-name="マスクグループ 2" transform="translate(0 -171)" clip-path="url(#clip-path)">
      <g id="グループ_13" data-name="グループ 13" transform="translate(863.864 1261.937)">
        <g id="グループ_12" data-name="グループ 12" clip-path="url(#clip-path-2)">
          <path id="パス_55" data-name="パス 55" d="M2.71,152.987c1.818-1.891,3.552-3.826,5.426-5.613Q16.3,139.6,24.747,132.123c4.408-3.887,8.865-7.717,13.411-11.44,1.579-1.294,1.606-1.267,2.067.709,1.709,7.284,2.741,14.693,4,22.06,1.079,6.316,2.341,12.6,3.565,18.885.149.768.232,1.208-.824,1.047a285.382,285.382,0,0,1-31.805-6.365A108.363,108.363,0,0,1,3.546,153.4c-.326-.13-.687-.2-.836-.418" fill="#fff" fill-rule="evenodd"/>
          <path id="パス_56" data-name="パス 56" d="M12.694,34.268a23.161,23.161,0,0,1,9.633-17.886c8-6.088,18.066-3.916,23.857,5.164,4.844,7.594,3.494,15.673-1.457,22.544a21.4,21.4,0,0,1-7.441,6.448,13.186,13.186,0,0,1-12.6.372c-5.244-2.594-9.451-6.19-11.307-11.991a15.935,15.935,0,0,1-.683-4.651" fill="#0f2347" stroke="#0f2347" stroke-width="1" fill-rule="evenodd"/>
          <path id="パス_57" data-name="パス 57" d="M124.272,55.812c-.412,0-.412.394-.546.62a36.534,36.534,0,0,1-8.917,10.4,1.127,1.127,0,0,0-.375,1.531,13.027,13.027,0,0,0,5.479,6.5,32.75,32.75,0,0,0,13.354,4.5c3.6.479,7.23.752,10.838,1.151.452.05,1.243-.093,1.267.448.021.515-.775.482-1.233.6a20.541,20.541,0,0,1-4.026.511c-.524.029-.6.172-.553.693a10.562,10.562,0,0,1-1.017,5.183c-.286.645-.814,1.466-1.546,1.244-.8-.243-.571-1.224-.461-1.89.22-1.332.753-2.592.854-3.96.061-.914-.189-1.318-1.2-1.378A41.187,41.187,0,0,1,122.715,78.9a23.064,23.064,0,0,1-5.879-3.438,1.416,1.416,0,0,0-.83-.42,45.761,45.761,0,0,1-10.426-2.179,1.979,1.979,0,0,0-1.434.053,32.932,32.932,0,0,1-7.854,1.917c-.571.072-.773.22-.791.827-.1,3.278-.22,6.556-.4,9.83-.045.787.2,1.033.944,1.135a12.577,12.577,0,0,1,6.1,2.372,5.412,5.412,0,0,1,1.966,6.182,3.274,3.274,0,0,1-.431.853,1.084,1.084,0,0,1-1.486.427,1.071,1.071,0,0,1-.48-1.386c.092-.306.227-.6.3-.909a3.177,3.177,0,0,0-1.471-3.5A11.117,11.117,0,0,0,95.266,88.8a17.125,17.125,0,0,0-8.3.951c-2.874,1.135-5.839,2.075-8.458,4a1.965,1.965,0,0,1,.757-1.676,14.7,14.7,0,0,1,5.73-4,1.066,1.066,0,0,0,.809-1.15c.1-3.635.22-7.269.457-10.895.062-.986-.245-1.232-1.1-1.354a33.356,33.356,0,0,1-11.933-4.09c-10.9-6.19-17.407-15.47-19.129-27.885A37.513,37.513,0,0,1,89.274.216c.251-.011.586.149.748-.216h2.35a8.06,8.06,0,0,0,2.877.388c11.858,1.465,21.02,7.24,27.628,17.149.238.357.323.88,1,.449,4.606-2.924,9.767-4.055,15.118-4.4a75.116,75.116,0,0,1,26.119,2.695,20.436,20.436,0,0,1,7.432,3.872,9.3,9.3,0,0,1,2.661,3.3,4.625,4.625,0,0,1,.107,4.13c-.33.658-.19.92.374,1.324a69.926,69.926,0,0,1,16.288,15.766,26.929,26.929,0,0,1,5.162,11.381c1.184,7.4-1.509,13.194-7.515,17.514a40.844,40.844,0,0,1-17.553,6.84,30.643,30.643,0,0,1-8.51.487c-.73-.084-1.456-.16-1.8-.922-.356-.781.123-1.338.6-1.9a5.266,5.266,0,0,0,.086-6.35c-.312-.391-.614-.648-1.169-.472a4.859,4.859,0,0,1-4.634-.869c-.457-.35-.65-.419-.791.277a21,21,0,0,0,1.874,13.711,5.461,5.461,0,0,0,1.087,1.443.648.648,0,0,1,.153.869.711.711,0,0,1-.949.218,4.217,4.217,0,0,1-2.051-1.958,20.069,20.069,0,0,1-2.732-12.2,21.206,21.206,0,0,1,.818-4.3c.488-1.592,1.535-1.879,2.811-.807a2.709,2.709,0,0,1,.242.211c2,2.185,3.851,1.679,5.783-.222a10.563,10.563,0,0,0,3.083-8.882c-.223-2.32-1.852-3.4-4.078-2.679a23.845,23.845,0,0,0-5.57,2.664A2.19,2.19,0,0,0,155.435,60c-.216.644-.56,1.248-1.373.989-.791-.253-.766-.953-.608-1.61.721-3.043,1.633-6.044,2.161-9.137.327-1.882.361-1.87-1.306-2.75a26.559,26.559,0,0,1-7.295-6.192,36.485,36.485,0,0,1-5.378-7.939c-.379-.751-.732-.87-1.462-.476a30.84,30.84,0,0,1-10.665,3.25c-.533.073-.8.193-.793.834a36.789,36.789,0,0,1-4.008,17.609,1.189,1.189,0,0,0-.052.4l.022-.013a.737.737,0,0,0-.436.887Zm32.179.829c.993-.7,1.7-1.235,2.437-1.709a9.292,9.292,0,0,1,2.465-1.008c3.423-1,6.306.827,6.749,4.356a13.182,13.182,0,0,1-3.678,10.959c-.317.341-.643.534-.211,1.1a7.233,7.233,0,0,1,.88,7.475c-.339.844-.058.948.674.948a34.557,34.557,0,0,0,5.421-.475,39.988,39.988,0,0,0,17.019-6.456c6.486-4.563,8.633-11.636,5.729-19.017a34.659,34.659,0,0,0-6.174-9.927,74.184,74.184,0,0,0-13.491-12.258c-1.245-.879-1.615-1.721-1.038-3.512a3.731,3.731,0,0,0-.589-3.621,9.48,9.48,0,0,0-1.624-1.69,19.453,19.453,0,0,0-7.313-3.617A73.556,73.556,0,0,0,138.3,15.88a29.16,29.16,0,0,0-13.176,3.94c-.566.348-.694.583-.373,1.21a32.2,32.2,0,0,1,3.019,8.414c.259,1.289.457,2.594.663,3.891.066.432.137.724.713.628a32.154,32.154,0,0,0,9.1-2.614c.543-.268,1.08-.556,1.642-.774a2.453,2.453,0,0,1,3.424,1.216c.334.588.633,1.2.981,1.776,3.182,5.284,6.87,10.067,12.694,12.718a1.974,1.974,0,0,1,1.179,2.183c-.047.5-.148.985-.227,1.476-.366,2.167-.855,4.31-1.484,6.7M91.338,2.074a35.619,35.619,0,1,0,35.5,35.6c-.079-19.664-16.07-35.7-35.5-35.6M88.526,81.141c-.066,0-.133,0-.194,0-.079,1.708-.141,3.417-.242,5.125-.03.52.083.719.635.584a14.487,14.487,0,0,1,3.489-.442c.483,0,.593-.2.611-.635q.179-4.971.4-9.938c.027-.518-.1-.667-.643-.643a24.451,24.451,0,0,1-3.2-.033c-.65-.057-.885.047-.867.746.044,1.742.018,3.49.018,5.234M114.1,72.618a20.929,20.929,0,0,1-1.68-3.335c-.14-.414-.36-.416-.722-.2-1.188.72-2.393,1.4-3.74,2.181a55.743,55.743,0,0,0,6.142,1.355" fill="#0f2347" fill-rule="evenodd"/>
          <path id="パス_58" data-name="パス 58" d="M227.777,171.126a72.934,72.934,0,0,1-1.148-7.359,60.092,60.092,0,0,0-6.5-18.666,133.432,133.432,0,0,0-25.9-34.182A123.879,123.879,0,0,0,165.954,90.04c-.892-.475-1.236-.315-1.834.449-4.778,6.083-10.385,11.152-17.737,13.974a14.955,14.955,0,0,1-9.231.592,11.115,11.115,0,0,1-8.229-12.727c.049-.275.089-.55.145-.93a13.216,13.216,0,0,0-2.9.862,59.738,59.738,0,0,0-14.254,7.44,5.421,5.421,0,0,1-2.194,1.055c-.748.129-1.022-.252-.77-.936a3.848,3.848,0,0,1,1.429-1.826,59.992,59.992,0,0,1,18.75-9.058c1.434-.4,1.883-.048,1.9,1.373a42.24,42.24,0,0,0,.122,4.911c.687,5.219,4.722,8.316,10.209,7.993a17.786,17.786,0,0,0,7.573-2.4A43.356,43.356,0,0,0,162.48,88.9a5.324,5.324,0,0,0,.6-1c.528-1.157,1.042-1.346,2.159-.784a114.58,114.58,0,0,1,20.84,13.535,140.628,140.628,0,0,1,34.686,40.789,67.03,67.03,0,0,1,7.973,20.96,8.307,8.307,0,0,0,.537,2.743v1.71c-.395.125-.22.466-.251.713a13.869,13.869,0,0,1-.818,3.566Z" fill="#0f2347" fill-rule="evenodd"/>
          <path id="パス_59" data-name="パス 59" d="M8.03,85.52c-.2-4.4.11-9.1.1-13.8a2.764,2.764,0,0,1,.232-1.249c.2-.409.573-.843.98-.661,1.431.639,2.8.036,4.16-.147a164.637,164.637,0,0,1,28.892-1.3c1.741.072,3.489.143,5.226.294,3.037.269,4.453,1.583,4.96,4.625a91.942,91.942,0,0,1,.8,10.433c.256,5.124.41,10.252.6,15.378a30.8,30.8,0,0,1-.11,4.695,4.761,4.761,0,0,1-4.249,4.634c-2.985.569-6.025.552-9.04.822-6.56.59-13.128,1.131-19.694,1.668-2.7.22-5.4.416-8.1.539-2.21.1-3.129-.645-3.578-2.8a49.247,49.247,0,0,1-.656-6.372c-.414-5.473-.43-10.96-.528-16.752m2.244,2.919c.106,3.157.213,7.755.422,12.344.112,2.348.371,4.688.639,7.023.154,1.37.453,1.538,1.83,1.434.995-.077,1.993-.136,2.988-.218q9.9-.822,19.805-1.643c3.837-.31,7.674-.561,11.507-.889,3.6-.31,4.258-1.065,4.277-4.692.021-4.565-.229-9.122-.415-13.678-.187-4.7-.339-9.4-.888-14.077-.278-2.373-1.087-3.115-3.441-3.224-5.518-.256-11.031-.516-16.561-.3A175.319,175.319,0,0,0,11.3,72.249c-.726.107-.921.364-.943,1.066-.144,4.563-.14,9.124-.079,15.124" fill="#0f2347" fill-rule="evenodd"/>
          <path id="パス_60" data-name="パス 60" d="M50.072,166.124c-4.372-.7-8.742-1.336-13.089-2.095a223.766,223.766,0,0,1-31.33-7.476,27.551,27.551,0,0,1-4.078-1.576c-1.869-.958-2.082-2.232-.6-3.708,11.34-11.3,23.255-21.975,35.589-32.183a11.67,11.67,0,0,1,1.761-1.206c1.917-1.067,3.211-.51,3.748,1.613.876,3.452,1.561,6.945,2.143,10.457,1.829,11.1,3.77,22.176,5.949,33.212a1.083,1.083,0,0,0,.6.906,1.086,1.086,0,0,1,.659,1.4c-.228.6-.818.6-1.348.652M2.71,152.987c.149.22.51.288.836.418a108.363,108.363,0,0,0,11.611,3.614,285.382,285.382,0,0,0,31.805,6.365c1.056.161.973-.279.824-1.047-1.224-6.288-2.486-12.569-3.565-18.885-1.255-7.367-2.287-14.776-4-22.06-.461-1.976-.488-2-2.067-.709-4.546,3.723-9,7.553-13.411,11.44q-8.464,7.458-16.611,15.251c-1.874,1.787-3.608,3.722-5.426,5.613" fill="#0f2347" fill-rule="evenodd"/>
          <path id="パス_61" data-name="パス 61" d="M30.278,54.531c-4.462-.009-8.132-2.068-11.547-4.645-4.529-3.42-7.542-7.823-8.162-13.607a20.665,20.665,0,0,1,1.593-10.233,25.045,25.045,0,0,1,11.413-13.1C30.263,9.4,36.812,9.935,42.8,14.553a20.913,20.913,0,0,1,8.643,16.893c.1,9.471-7.1,19.4-15.893,22.289a17.345,17.345,0,0,1-2.592.614,15.7,15.7,0,0,1-2.679.182M12.694,34.268a15.935,15.935,0,0,0,.683,4.651c1.856,5.8,6.063,9.4,11.307,11.991a13.186,13.186,0,0,0,12.6-.372,21.4,21.4,0,0,0,7.441-6.448c4.951-6.871,6.3-14.95,1.457-22.544-5.791-9.08-15.854-11.252-23.857-5.164a23.161,23.161,0,0,0-9.633,17.886" fill="#0f2347" fill-rule="evenodd"/>
          <path id="パス_62" data-name="パス 62" d="M84.873,119.4a3.646,3.646,0,0,0-1.508.724,2.662,2.662,0,0,1-3.556.055,11.705,11.705,0,0,1-3.665-3.833c-3.669-6.362-3.938-13.016-1.581-19.867a4.626,4.626,0,0,1,.995-1.632c.44-.473.955-.831,1.589-.4.59.4.48.994.184,1.528a15.7,15.7,0,0,0-1.759,5.789,20.409,20.409,0,0,0,2.287,13.013,11.279,11.279,0,0,0,3.051,3.395.9.9,0,0,0,1.2.051,19.221,19.221,0,0,1,13.8-2.264,6.887,6.887,0,0,1,3.119,1.557c.4.33.761.733.409,1.284-.312.484-.8.378-1.249.209a16.914,16.914,0,0,0-3.265-.98c-.708-.11-.894.084-.912.8-.15,5.307-.378,10.611-.5,15.917a3.521,3.521,0,0,1-1.148,2.733,5.489,5.489,0,0,1-4.738,1.705,4.354,4.354,0,0,1-3.143-4.09c.146-4.914.313-9.827.467-14.743a1.52,1.52,0,0,0-.08-.952m6.342,7.2h.523c0-2.666-.022-5.335.014-8,.007-.616-.151-.832-.762-.733-.946.154-1.9.3-2.848.407-.665.08-.852.409-.87,1.061q-.239,8.266-.559,16.531a.755.755,0,0,0,.413.763c1.492.962,4.044-.277,4.075-2.031.048-2.664.014-5.331.014-8" fill="#0f2347" fill-rule="evenodd"/>
          <path id="パス_63" data-name="パス 63" d="M56.418,150.639c.137-8.794,2.255-17.183,5.268-25.378a77.624,77.624,0,0,1,6.3-13.407,16.077,16.077,0,0,1,2.077-2.841c.479-.5,1.052-.847,1.693-.35s.446,1.142.046,1.71c-6.047,8.6-9.379,18.313-11.7,28.431a51.666,51.666,0,0,0-1.334,14.213,21.136,21.136,0,0,0,1.8,7.971,10.556,10.556,0,0,0,7.467,5.839,35.173,35.173,0,0,0,6.477,1.311c.243.015.589-.031.634.266.052.355-.33.43-.577.522a10.9,10.9,0,0,1-6.006.358c-6.74-1.361-10.433-5.344-11.669-12.47a34.147,34.147,0,0,1-.476-6.175" fill="#0f2347" fill-rule="evenodd"/>
          <path id="パス_64" data-name="パス 64" d="M90.709,93.9a21.6,21.6,0,0,1,9.975,2.372,4.732,4.732,0,0,1,2.375,2.358c.3.728.5,1.529-.382,1.953-.818.392-1.211-.255-1.55-.888a4.72,4.72,0,0,0-2.692-1.978A20.516,20.516,0,0,0,86.8,96.535c-2,.356-4.008.6-6.019.871-.306.041-.712.208-.849-.177-.122-.34.238-.563.485-.754a9.212,9.212,0,0,1,3.529-1.712,28.467,28.467,0,0,1,6.763-.864" fill="#0f2347" fill-rule="evenodd"/>
          <path id="パス_65" data-name="パス 65" d="M92.657,100.671a13.684,13.684,0,0,1,6.059,1.426,5.345,5.345,0,0,1,2.447,2.455,1.034,1.034,0,0,1-.162,1.364.957.957,0,0,1-1.361-.11c-3.642-3.743-8.052-3.128-12.483-2.167a38.575,38.575,0,0,1-5.183,1.212c-.312.025-.69.189-.885-.136-.232-.392.119-.662.366-.9a6.511,6.511,0,0,1,2.307-1.513,24.076,24.076,0,0,1,8.895-1.626" fill="#0f2347" fill-rule="evenodd"/>
          <path id="パス_66" data-name="パス 66" d="M92.926,108.131a12.388,12.388,0,0,1,4.395.76,5.014,5.014,0,0,1,2.768,2.521.934.934,0,0,1-.268,1.245.854.854,0,0,1-1.17-.117c-2.578-2.691-5.817-2.211-9-1.865a20.667,20.667,0,0,0-4.942,1.274,8.962,8.962,0,0,1-2.815.539c-.237.008-.528.059-.665-.212-.153-.3.035-.548.22-.761a5.913,5.913,0,0,1,2.518-1.736,26.814,26.814,0,0,1,8.962-1.648" fill="#0f2347" fill-rule="evenodd"/>
          <path id="パス_67" data-name="パス 67" d="M124.656,54.977c.553.372.642-.231.815-.455a21.362,21.362,0,0,0,3.993-9.1c.112-.571-.1-1.543.818-1.47s.754,1.034.7,1.65a19.185,19.185,0,0,1-4.322,10.829,1.807,1.807,0,0,0-.553,1.989,3.047,3.047,0,0,1,.031,1.166c-.013.308.106.708-.216.886-.379.214-.655-.134-.923-.346a3.315,3.315,0,0,1-.723-4.318l-.03.04c.18-.28.766-.357.436-.887Z" fill="#0f2347" fill-rule="evenodd"/>
          <path id="パス_68" data-name="パス 68" d="M128.335,68.193c-1.148,0-1.932.037-2.716-.011-.62-.039-1.117-.346-1.117-1.051,0-.643.436-.946,1.025-1.03a18.563,18.563,0,0,1,10.552,1.388,2.393,2.393,0,0,1,.687.5,1.1,1.1,0,0,1,.4,1.239c-.22.519-.723.554-1.19.5a5.062,5.062,0,0,1-1.227-.324,14.687,14.687,0,0,0-6.419-1.2" fill="#0f2347" fill-rule="evenodd"/>
          <path id="パス_69" data-name="パス 69" d="M134.4,53.724a4.811,4.811,0,0,1,1.93-3.355c.991-.753,2.5.066,2.844,1.489a3.989,3.989,0,0,1-2.181,4.05c-1.4.493-2.622-.448-2.593-2.184" fill="#0f2347" fill-rule="evenodd"/>
          <path id="パス_70" data-name="パス 70" d="M139.018,41.489c1.584-.029,3.217,2.352,2.667,3.747a.622.622,0,0,1-1.1.276,1.567,1.567,0,0,1-.365-.635c-.568-1.4-.563-1.4-2.076-1.1a.907.907,0,0,1-1.053-.3.95.95,0,0,1,.128-1.183,2.383,2.383,0,0,1,1.795-.807" fill="#0f2347" fill-rule="evenodd"/>
          <path id="パス_71" data-name="パス 71" d="M156.452,56.641c.629-2.387,1.117-4.53,1.483-6.7.08-.491.18-.981.227-1.476a1.973,1.973,0,0,0-1.178-2.183c-5.825-2.651-9.512-7.434-12.695-12.718-.348-.579-.647-1.188-.98-1.776a2.453,2.453,0,0,0-3.424-1.216c-.562.218-1.1.506-1.642.774a32.164,32.164,0,0,1-9.1,2.614c-.577.1-.647-.2-.714-.627-.2-1.3-.4-2.6-.663-3.892a32.2,32.2,0,0,0-3.019-8.414c-.32-.627-.192-.862.374-1.21A29.16,29.16,0,0,1,138.3,15.88a73.561,73.561,0,0,1,25.411,2.308,19.46,19.46,0,0,1,7.313,3.617,9.508,9.508,0,0,1,1.623,1.69,3.734,3.734,0,0,1,.59,3.621c-.577,1.791-.207,2.633,1.038,3.512a74.218,74.218,0,0,1,13.491,12.258,34.659,34.659,0,0,1,6.174,9.927c2.9,7.381.757,14.454-5.729,19.017a39.988,39.988,0,0,1-17.02,6.456,34.546,34.546,0,0,1-5.421.475c-.731,0-1.013-.1-.674-.948a7.233,7.233,0,0,0-.879-7.475c-.433-.565-.106-.758.211-1.1A13.189,13.189,0,0,0,168.1,58.28c-.443-3.529-3.327-5.357-6.749-4.356a9.312,9.312,0,0,0-2.466,1.008c-.738.475-1.443,1.01-2.436,1.709" fill="#e86b65" fill-rule="evenodd"/>
          <path id="パス_72" data-name="パス 72" d="M114.1,72.618a55.743,55.743,0,0,1-6.142-1.355c1.347-.779,2.552-1.461,3.74-2.181.362-.215.582-.213.722.2a20.929,20.929,0,0,0,1.68,3.335" fill="#e86b65" fill-rule="evenodd"/>
          <path id="パス_73" data-name="パス 73" d="M10.274,88.439c-.061-6-.065-10.561.079-15.124.022-.7.217-.959.943-1.066a175.319,175.319,0,0,1,19.141-1.732c5.53-.214,11.043.046,16.561.3,2.354.109,3.163.851,3.441,3.224.549,4.676.7,9.377.888,14.077.186,4.556.436,9.113.415,13.678-.019,3.627-.682,4.382-4.277,4.692-3.833.328-7.67.579-11.507.889q-9.9.806-19.805,1.643c-.995.082-1.993.141-2.988.218-1.377.1-1.676-.064-1.83-1.434-.268-2.335-.527-4.675-.639-7.023-.209-4.589-.316-9.187-.422-12.344" fill="#e86b65" fill-rule="evenodd"/>
          <path id="パス_74" data-name="パス 74" d="M41.134,43.441a2.867,2.867,0,0,1-.559,1.4,2.424,2.424,0,0,1-1.024.8,1.966,1.966,0,0,1-1.231.055,2.308,2.308,0,0,1-1.211-.875,2.364,2.364,0,0,1-.54-1.322,11.235,11.235,0,0,0-.2-1.433,31.546,31.546,0,0,0-1.081-4.21q-2.309.036-4.579.037t-4.547.037q-.336.969-.577,1.975t-.465,1.974c-.126.5-.236,1.013-.335,1.547a2.893,2.893,0,0,1-.67,1.4,2.167,2.167,0,0,1-1.359.838,2.021,2.021,0,0,1-1.305-.241,2.419,2.419,0,0,1-.932-1.025,2.655,2.655,0,0,1-.241-1.583,11.713,11.713,0,0,1,.448-2.272q.333-1.117.631-2.234a82.432,82.432,0,0,1,4.322-12.4q.224-.521.466-1.006c.161-.322.318-.645.464-.968.176-.347.348-.72.522-1.118a6.288,6.288,0,0,1,.615-1.1,3.727,3.727,0,0,1,.838-.857,1.978,1.978,0,0,1,1.193-.352,2.2,2.2,0,0,1,1.564.595,22.882,22.882,0,0,1,4.172,5.718,71.04,71.04,0,0,1,2.943,6.5c.519-.025,1.029-.025,1.527,0a1.953,1.953,0,0,1,1.342.67,2.039,2.039,0,0,1,.613,1.119,2.281,2.281,0,0,1-.112,1.153,2.338,2.338,0,0,1-.67.968,2.486,2.486,0,0,1-1.136.559q.374,1.3.651,2.663t.467,2.738Zm-7.6-10.131q-.708-1.677-1.508-3.334a25.3,25.3,0,0,0-1.806-3.147q-.747,1.64-1.4,3.259t-1.211,3.3q1.752-.034,3.075-.036c.879,0,1.831-.013,2.849-.037" fill="#fff"/>
          <path id="パス_75" data-name="パス 75" d="M25.589,102.692q-1.668-.193-2.039-1.106a2.88,2.88,0,0,1-.018-2V83.831a1.922,1.922,0,0,1-1.106-.328,2.48,2.48,0,0,1-.775-.836,2.161,2.161,0,0,1-.292-1.105,1.887,1.887,0,0,1,.35-1.106,5.512,5.512,0,0,1,2-1.825,15.388,15.388,0,0,1,6.675-1.822,8.864,8.864,0,0,1,4.1.853,7.657,7.657,0,0,1,2.871,2.212,6.585,6.585,0,0,1,1.319,2.891,6.269,6.269,0,0,1-.272,3.143,7.792,7.792,0,0,1-1.939,3.007,6.9,6.9,0,0,1,2.6,2.776,6.352,6.352,0,0,1,.642,3.318,7.562,7.562,0,0,1-1.087,3.3,9.127,9.127,0,0,1-2.582,2.755,7.178,7.178,0,0,1-2.271,1.068,16.665,16.665,0,0,1-2.676.524,24.546,24.546,0,0,1-2.736.154q-1.359,0-2.483-.076Zm2.678-15.833h1.4a6.951,6.951,0,0,0,1.377-.136,5.488,5.488,0,0,0,1.323-.446,3.584,3.584,0,0,0,1.142-.893,1.845,1.845,0,0,0,.523-1.726,2.282,2.282,0,0,0-1.1-1.457,4.243,4.243,0,0,0-2.29-.679,8.127,8.127,0,0,0-2.366.292Zm5.588,5.976a5.908,5.908,0,0,0-2.7-1.009,8.084,8.084,0,0,0-1.377-.038c-.466.025-.969.051-1.513.077v6.209q.854,0,1.823-.059a8.646,8.646,0,0,0,1.862-.31,6.819,6.819,0,0,0,1.67-.717,3.479,3.479,0,0,0,1.24-1.28,4.616,4.616,0,0,0-.037-1.611,2.234,2.234,0,0,0-.97-1.262" fill="#fff"/>
          <path id="パス_76" data-name="パス 76" d="M35.453,149.755a2.336,2.336,0,0,1,1.391-.705,2.564,2.564,0,0,1,1.426.21,2.2,2.2,0,0,1,1.007.97,2.256,2.256,0,0,1,.171,1.579,4.239,4.239,0,0,1-.872,1.693c-.434.521-.863,1-1.3,1.428a9.535,9.535,0,0,1-3.292,2.3,9.05,9.05,0,0,1-3.649.7,8.793,8.793,0,0,1-3.617-.876,9.431,9.431,0,0,1-3.178-2.511,11.178,11.178,0,0,1-1.407-2.092,10.781,10.781,0,0,1-.876-2.321,13.975,13.975,0,0,1-.418-3.729,13.46,13.46,0,0,1,.609-3.767,13.973,13.973,0,0,1,1.619-3.443,10.585,10.585,0,0,1,2.568-2.759,17.377,17.377,0,0,1,2.223-1.446c.75-.4,1.541-.785,2.379-1.142.48-.2.975-.4,1.483-.587a9.527,9.527,0,0,1,1.561-.439,6.787,6.787,0,0,1,1.6-.115,4.816,4.816,0,0,1,1.56.343,5.163,5.163,0,0,1,1.063.628,6.51,6.51,0,0,1,.99.914,6.9,6.9,0,0,1,.8,1.084,4.738,4.738,0,0,1,.5,1.1,2.949,2.949,0,0,1,.054,1.01,2.234,2.234,0,0,1-.3.932,2.216,2.216,0,0,1-1.618,1.066,2,2,0,0,1-1.348-.191,2.428,2.428,0,0,1-.763-.76c-.189-.3-.373-.6-.551-.894a1.5,1.5,0,0,0-.761-.628,1.987,1.987,0,0,0-.457.038,17.211,17.211,0,0,0-2.606.931A12.864,12.864,0,0,0,29,139.71a9.809,9.809,0,0,0-1.959,1.939,7.23,7.23,0,0,0-1.218,2.475,9.791,9.791,0,0,0-.344,3.309,7.693,7.693,0,0,0,.915,3.158,5.018,5.018,0,0,0,1.217,1.523,5.33,5.33,0,0,0,1.674.971,4.265,4.265,0,0,0,1.863.228,4.081,4.081,0,0,0,1.829-.667,6.393,6.393,0,0,0,1.368-1.312,17.6,17.6,0,0,0,1.1-1.579" fill="#0f2347"/>
          <path id="パス_77" data-name="パス 77" d="M91.232,4.849A32.835,32.835,0,1,1,58.407,38.217,32.827,32.827,0,0,1,91.232,4.849M91.255,6.5c-17.668.227-31.48,14.191-31.172,31.743A31.16,31.16,0,1,0,91.255,6.5" fill="#0f2347" fill-rule="evenodd"/>
          <path id="パス_78" data-name="パス 78" d="M81.679,46.441a20.232,20.232,0,0,1,4-11.7c4.127-5.3,11.99-4.407,14.322,1.905a20.709,20.709,0,0,1-2.521,19.739C94.6,60.556,90,60.512,86.251,57.5c-3.476-2.794-4.457-6.666-4.572-11.055" fill="#0f2347" fill-rule="evenodd"/>
          <path id="パス_79" data-name="パス 79" d="M93.719,11.4a8.262,8.262,0,0,1,8.065,5.527,3.31,3.31,0,0,1,.185.609c.1.675.254,1.444-.607,1.71-.8.244-1.224-.39-1.391-1.01-1.478-5.551-8.914-6-12.442-1.513a19.477,19.477,0,0,1-2.179,2.624c-.211.191-.427.411-.745.321-.382-.108-.425-.458-.448-.775a3.354,3.354,0,0,1,.476-2.045A10.514,10.514,0,0,1,93.719,11.4" fill="#0f2347" fill-rule="evenodd"/>
        </g>
      </g>
    </g>
  </g>
</svg>
