<svg xmlns="http://www.w3.org/2000/svg" xmlns:xlink="http://www.w3.org/1999/xlink" width="112.817" height="112.816" viewBox="0 0 112.817 112.816">
  <defs>
    <clipPath id="clip-path">
      <rect id="長方形_88" data-name="長方形 88" width="78" height="68.792" fill="#f1ede8"/>
    </clipPath>
  </defs>
  <g id="グループ_692" data-name="グループ 692" transform="translate(-1075.183 -10298.545)">
    <circle id="楕円形_48" data-name="楕円形 48" cx="56.408" cy="56.408" r="56.408" transform="translate(1075.183 10411.361) rotate(-90)" fill="#a20000"/>
    <g id="グループ_53" data-name="グループ 53" transform="translate(1097 10325.17)">
      <g id="グループ_52" data-name="グループ 52" clip-path="url(#clip-path)">
        <path id="パス_442" data-name="パス 442" d="M1.213,50.509H9.39a8.876,8.876,0,0,0,.419,1.258h0a4,4,0,0,0,.6.977,10.892,10.892,0,0,0,1.447,1.419,91.137,91.137,0,0,0,7.752,5.431c1.384.9,2.695,1.758,3.729,2.468.518.354.965.672,1.308.932a6.178,6.178,0,0,1,.627.52h0a3.973,3.973,0,0,0,.981.725,12.423,12.423,0,0,0,2.05.837,93.139,93.139,0,0,0,10.511,2.417c1.84.34,3.562.632,4.914.85s2.316.36,2.737.411a6.4,6.4,0,0,0,.731.041,12.566,12.566,0,0,0,4.513-1.077c1.368-.55,2.63-1.167,3.494-1.493,3.088-1.178,5.968-2.505,8.885-3.677a23.5,23.5,0,0,1,8.508-1.627,20.812,20.812,0,0,1,3.083.227,2.022,2.022,0,0,0,.6-4c-.179-.027-.349-.036-.526-.058a25.208,25.208,0,0,0-3.158-.213,27.476,27.476,0,0,0-10.016,1.919c-3.039,1.223-5.9,2.539-8.817,3.65h0c-1.139.438-2.362,1.041-3.557,1.519a8.992,8.992,0,0,1-3.008.787l-.262-.014c-.327-.037-1.7-.239-3.483-.536-2.7-.447-6.443-1.122-9.632-1.844-1.591-.36-3.047-.734-4.124-1.08a12.076,12.076,0,0,1-1.268-.47l-.294-.151-.024-.015h0A11.738,11.738,0,0,0,26.8,59.555c-1.913-1.4-5.167-3.434-8.068-5.386-1.444-.97-2.791-1.916-3.78-2.7a13.607,13.607,0,0,1-1.151-1l-.264-.292-.013-.016c-.019-.048-.035-.089-.05-.133.082-.029.134-.055.238-.085h0a3.336,3.336,0,0,1,.978-.124,10.038,10.038,0,0,1,2.3.334c.834.2,1.681.474,2.448.718h0a16.563,16.563,0,0,1,5.912,3.457,19.965,19.965,0,0,0,1.7,1.423,4.508,4.508,0,0,0,1.148.573,4.379,4.379,0,0,0,1.362.206,8.069,8.069,0,0,0,1.769-.231h0c1.568-.355,3.469-.765,5.352-1.081a33.09,33.09,0,0,1,5.187-.536,2.022,2.022,0,0,0,.934-3.815c-1.834-.954-3.322-1.874-5.086-2.809a38.713,38.713,0,0,0-6.538-2.739h0c-.321-.1-.646-.187-1.017-.31a5.4,5.4,0,0,1-1.434-.665.933.933,0,0,1-.227-.216,1.05,1.05,0,0,1,.169-.611,2.086,2.086,0,0,1,.968-.681,3.489,3.489,0,0,1,1.046-.243,184.113,184.113,0,0,0,20.223,1.6c2.962.125,5.6.249,7.721.464a15.209,15.209,0,0,1,4.383.888A18.992,18.992,0,0,0,68,47.216a36.675,36.675,0,0,0,6.5.422,1.978,1.978,0,0,0,.216-.043,2.005,2.005,0,0,0-.216-4,32.993,32.993,0,0,1-5.775-.358,13.937,13.937,0,0,1-3.249-1.025V2.841a1.213,1.213,0,0,0-1.213-1.213H44.971A2.42,2.42,0,0,0,42.69,0H22.782A2.419,2.419,0,0,0,20.5,1.628H1.213A1.213,1.213,0,0,0,0,2.841V49.3a1.213,1.213,0,0,0,1.213,1.213M42.69,2.426V21.967L40.2,24.054l-2.486-2.087-2.489,2.087-2.489-2.087-2.488,2.087-2.489-2.087-2.486,2.087-2.489-2.087V2.426ZM35.3,51.36c-1.747.313-3.44.676-4.851,1h0a4.355,4.355,0,0,1-.881.132l-.114-.01a1.244,1.244,0,0,1-.319-.216c-.24-.192-.614-.536-1.125-.982h0c-.31-.269-.638-.515-.96-.77h6.457c.638.28,1.227.563,1.791.851" fill="#f1ede8"/>
      </g>
    </g>
  </g>
</svg>
