<svg xmlns="http://www.w3.org/2000/svg" xmlns:xlink="http://www.w3.org/1999/xlink" width="275" height="275" viewBox="0 0 275 275">
  <defs>
    <clipPath id="clip-path">
      <circle id="楕円形_39" data-name="楕円形 39" cx="137.5" cy="137.5" r="137.5" transform="translate(300 1732)" fill="#fff"/>
    </clipPath>
    <clipPath id="clip-path-2">
      <rect id="長方形_711" data-name="長方形 711" width="186.951" height="221.745" fill="none"/>
    </clipPath>
  </defs>
  <g id="グループ_681" data-name="グループ 681" transform="translate(-300 -1561)">
    <circle id="楕円形_3" data-name="楕円形 3" cx="137.5" cy="137.5" r="137.5" transform="translate(300 1561)" fill="#fff"/>
    <g id="マスクグループ_4" data-name="マスクグループ 4" transform="translate(0 -171)" clip-path="url(#clip-path)">
      <g id="グループ_372" data-name="グループ 372" transform="translate(349.78 1775.847)">
        <g id="グループ_371" data-name="グループ 371" clip-path="url(#clip-path-2)">
          <path id="パス_2533" data-name="パス 2533" d="M49.131,161.947c-.913-2.5.1-4.646,1.309-6.7A32.282,32.282,0,0,1,66.73,141.6c10.706-4.3,22-5.824,33.382-6.814q8.794-.765,17.6-1.207a61.506,61.506,0,0,0,27.211-7.8,143.2,143.2,0,0,0,32.065-24.275A32.52,32.52,0,0,0,183.64,92.2a10.268,10.268,0,0,0,.438-7.8c-1.066-3.194-2.888-4.01-5.987-2.756a34.636,34.636,0,0,0-6.217,3.62c-5.557,3.721-11.216,7.254-17.12,10.409-16.665,8.9-34.187,12.388-52.952,8.9a111.145,111.145,0,0,0-20.228-1.512,4.223,4.223,0,0,0-3.951,1.981c-5.735,8.133-12.766,15.081-20.287,21.543a29.307,29.307,0,0,1-3.721,2.593c-.842.521-1.888,1-2.61-.085-.759-1.131.2-1.749,1-2.357a119.026,119.026,0,0,0,22.322-22.9,67.653,67.653,0,0,0,9.381-16.118,21.055,21.055,0,0,0,1.812-9.365c-.408-5.336-3.964-7.326-8.742-4.91a29.937,29.937,0,0,0-7.378,5.7c-4.244,4.2-8.443,8.443-12.65,12.675a48.317,48.317,0,0,1-16.613,10.908c-14.441,5.776-23.858,16.695-30.1,30.62-3.669,8.168-5.221,17-7.888,25.488a4.559,4.559,0,0,1-1.232,2.578,16.161,16.161,0,0,1-.258-7.994C3.663,135,10.9,118.827,25.844,106.832a43.949,43.949,0,0,1,12.924-7.395A41.588,41.588,0,0,0,54.3,89.3q6.349-6.31,12.824-12.5a30.985,30.985,0,0,1,7.818-5.557c6.976-3.372,12.759.08,13.23,7.87a22.86,22.86,0,0,1-.883,7.395,52.061,52.061,0,0,1-2.719,7.241c-.914,2.077-2.528,3.817-2.923,6.137,2.294.115,4.583.265,6.877.347,7.321.262,14.519,1.6,21.781,2.389,14.387,1.573,27.727-2.051,40.534-8.3a209.562,209.562,0,0,0,20.319-11.8,26.779,26.779,0,0,1,6.911-3.441c3.507-1,6.188.215,7.6,3.57a12.415,12.415,0,0,1,.037,9.88,33.234,33.234,0,0,1-6.564,10A135.286,135.286,0,0,1,148.667,127.1a69.893,69.893,0,0,1-33.5,9.641c-12.375.5-24.741,1.417-36.849,4.292a67.728,67.728,0,0,0-11.179,3.593,29.759,29.759,0,0,0-14.182,12.123c-1.057,1.753-2.2,3.461-3.294,5.193Z" transform="translate(0.238 59.798)" fill="#0f2347" fill-rule="evenodd"/>
          <path id="パス_2534" data-name="パス 2534" d="M103.088,27.534c-1.749.636-2.081,2.528-3.251,3.678C95.871,35.12,92.3,39.47,87.456,42.389c-.738.443-.312,2.14-1.614,1.634-1.269-.5-1.582-1.916-1.779-3.116-.872-5.349-1.616-10.719-2.463-16.072-.352-2.233,1.033-2.676,2.686-2.6,6.584.293,12.952,1.523,18.8,4.765Zm-3.526.326a97.37,97.37,0,0,0-13.733-2.969c-.907-.16-1.614-.185-1.389,1.109.76,4.433,1.5,8.87,2.333,13.838,4.409-4.131,8.445-7.911,12.789-11.978" transform="translate(69.702 18.998)" fill="#0f2347" fill-rule="evenodd"/>
          <path id="パス_2535" data-name="パス 2535" d="M0,24.008c.16-2.179,1.124-4.108,1.766-6.132.7-2.2,1.569-4.344,2.174-6.568.644-2.361,1.923-2.947,4.125-2.016,3.682,1.551,7.384,3.049,11.088,4.542,1.515.612,2.137,1.224,1.476,3.17-1.267,3.726-3.11,7.152-4.706,10.709-.453,1-1.156,1.816-.614,3.194s-.855,1.647-1.794,1.428a38.864,38.864,0,0,1-12.47-5.162C-.083,26.449.206,25.112,0,24.008m18.14-7.577c-1.914-.716-3.8-1.486-5.728-2.124S8.287,11.627,6.9,12.443c-1.321.775-1.437,3.608-2.077,5.533-2.565,7.7-2.55,7.668,5.364,10.366,1.393.475,2.077.269,2.7-1.061,1.675-3.608,3.461-7.165,5.258-10.85" transform="translate(0 7.582)" fill="#0f2347" fill-rule="evenodd"/>
          <path id="パス_2536" data-name="パス 2536" d="M76.941,64.623a7.872,7.872,0,0,1,1.118-3.8,44.4,44.4,0,0,1,8.057-8.864c1.7-1.408,3.261-.714,4.6.351a69.383,69.383,0,0,1,8.7,8.643c.772.875.671,1.5-.059,2.519a99.916,99.916,0,0,1-7.76,9.155,6.173,6.173,0,0,0-1.43,1.881c-.6,1.708-1.779,1.5-2.7.718-3.316-2.825-6.879-5.381-9.784-8.669a2.469,2.469,0,0,1-.738-1.931m20.651-1.994a20.724,20.724,0,0,0-1.358-1.684c-2.207-2.179-4.507-4.272-6.651-6.521-1.13-1.193-1.8-.809-2.786.15-2.624,2.556-4.63,5.609-6.985,8.374-.868,1.024-.3,1.578.39,2.185,2.274,1.983,4.6,3.91,6.824,5.939.914.833,1.469.545,2.185-.206,2.446-2.569,4.934-5.1,7.423-7.631a5.051,5.051,0,0,1,.959-.607" transform="translate(65.758 43.735)" fill="#0f2347" fill-rule="evenodd"/>
          <path id="パス_2537" data-name="パス 2537" d="M19.354,37.034c-.54,5.837-1.057,11.676-1.63,17.509-.217,2.2-1.246,2.7-2.977,1.256-4.641-3.873-9.318-7.7-13.614-11.963-1.1-1.089-1.161-1.9.386-2.9,4.348-2.819,9.092-4.819,13.772-6.946,3.289-1.489,4.353-.629,4.064,3.049m-4.52,15.035c.584-5.336,1.1-10.127,1.693-15.508C12.039,38.692,8.066,40.58,3.8,42.611c3.654,3.127,7.124,6.106,11.036,9.457" transform="translate(0.283 28.456)" fill="#0f2347" fill-rule="evenodd"/>
          <path id="パス_2538" data-name="パス 2538" d="M12.318,70.517c-.059-4.177,3.294-7.328,7.84-7.378,4.264-.048,8.124,3.348,8.183,7.2.069,3.914-4.691,8.031-9.239,8-3.1-.024-6.737-4.221-6.785-7.825m13.128-.243c-.013-2.32-2.422-4.407-5.1-4.418-2.923-.009-5.166,1.977-5.166,4.579,0,2.237,2.38,4.974,4.359,5.019,2.548.061,5.926-2.9,5.911-5.18" transform="translate(10.529 53.968)" fill="#0f2347" fill-rule="evenodd"/>
          <path id="パス_2539" data-name="パス 2539" d="M61.474,67.129c-2.578.07-4.06-1.508-3.94-4.216.187-4.607,5.692-8.107,9.951-6.336,3.186,1.322,3.793,5.015,1.274,7.718a10.735,10.735,0,0,1-7.286,2.834m.441-2.877c2.712-.013,5.733-1.985,5.527-3.654-.189-1.513-1.406-1.636-2.61-1.608-2.272.045-4.333,1.847-4.433,3.774-.061,1.159.415,1.649,1.515,1.488" transform="translate(49.173 47.96)" fill="#0f2347" fill-rule="evenodd"/>
          <path id="パス_2540" data-name="パス 2540" d="M56.872,4.925c8.408.521,6.846,1.141,4.017,6.18a31.939,31.939,0,0,1-1.821,3.231c-1.183,1.628-2.94,1.447-3.693-.425C54.485,11.7,53.8,9.4,53.044,7.141a1.343,1.343,0,0,1,1.178-1.935,25.276,25.276,0,0,1,2.65-.282M55.891,8.1c.469,1.044.914,2.044,1.714,3.815.3-1.9,1.493-2.608,1.406-3.984a5.19,5.19,0,0,0-3.12.169" transform="translate(45.24 4.21)" fill="#0f2347" fill-rule="evenodd"/>
          <path id="パス_2541" data-name="パス 2541" d="M98.247,26.668c-4.344,4.068-8.38,7.848-12.789,11.978-.836-4.969-1.573-9.406-2.333-13.838-.224-1.295.482-1.269,1.389-1.109a97.37,97.37,0,0,1,13.733,2.969" transform="translate(71.017 20.191)" fill="#e86b65" fill-rule="evenodd"/>
          <path id="パス_2542" data-name="パス 2542" d="M16.619,14.872c-1.8,3.685-3.583,7.243-5.258,10.85-.621,1.33-1.306,1.536-2.7,1.061C.748,24.085.733,24.122,3.3,16.417c.64-1.925.757-4.757,2.077-5.533,1.391-.816,3.6,1.232,5.516,1.864s3.813,1.408,5.728,2.124" transform="translate(1.521 9.142)" fill="#e86b65" fill-rule="evenodd"/>
          <path id="パス_2543" data-name="パス 2543" d="M96.466,61.47a5.05,5.05,0,0,0-.959.607c-2.489,2.53-4.976,5.062-7.423,7.631-.716.751-1.271,1.039-2.185.206-2.228-2.029-4.55-3.956-6.824-5.939-.686-.607-1.258-1.161-.39-2.185,2.356-2.765,4.361-5.818,6.985-8.374.985-.959,1.656-1.343,2.786-.15,2.144,2.25,4.444,4.342,6.651,6.521a20.722,20.722,0,0,1,1.358,1.684" transform="translate(66.883 44.893)" fill="#e86b65" fill-rule="evenodd"/>
          <path id="パス_2544" data-name="パス 2544" d="M13.236,50.562C9.324,47.21,5.854,44.231,2.2,41.1c4.268-2.031,8.241-3.919,12.729-6.05-.594,5.381-1.109,10.172-1.693,15.508" transform="translate(1.88 29.963)" fill="#e86b65" fill-rule="evenodd"/>
          <path id="パス_2545" data-name="パス 2545" d="M24.129,69.021c.015,2.283-3.363,5.242-5.911,5.18-1.979-.045-4.359-2.782-4.359-5.019,0-2.6,2.242-4.589,5.166-4.579,2.682.011,5.091,2.1,5.1,4.418" transform="translate(11.846 55.221)" fill="#e86b65" fill-rule="evenodd"/>
          <path id="パス_2546" data-name="パス 2546" d="M60.594,62.925c-1.1.161-1.577-.328-1.515-1.488.1-1.927,2.161-3.73,4.433-3.774,1.2-.028,2.42.095,2.61,1.608.206,1.669-2.816,3.641-5.527,3.654" transform="translate(50.494 49.286)" fill="#e86b65" fill-rule="evenodd"/>
          <path id="パス_2547" data-name="パス 2547" d="M54.525,6.788a5.19,5.19,0,0,1,3.12-.169C57.732,8,56.539,8.7,56.239,10.6c-.8-1.771-1.245-2.771-1.714-3.815" transform="translate(46.606 5.524)" fill="#e86b65" fill-rule="evenodd"/>
          <path id="パス_2548" data-name="パス 2548" d="M18.107,68.952c1.82-1.907,3.556-3.858,5.433-5.663Q31.716,55.444,40.179,47.9c4.416-3.923,8.881-7.788,13.436-11.546,1.582-1.306,1.61-1.282,2.083.7,1.742,7.313,2.808,14.757,4.1,22.157,1.109,6.343,2.4,12.651,3.652,18.969.154.772.237,1.213-.824,1.054a286,286,0,0,1-31.989-6.282,109.135,109.135,0,0,1-11.683-3.587c-.328-.13-.692-.2-.842-.417" transform="translate(15.477 30.308)" fill="#fff" fill-rule="evenodd"/>
          <path id="パス_2549" data-name="パス 2549" d="M19.312,22.754A23.278,23.278,0,0,1,28.927,4.742c8.022-6.149,18.143-4,24,5.1,4.9,7.616,3.57,15.738-1.38,22.663a21.517,21.517,0,0,1-7.456,6.508,13.262,13.262,0,0,1-12.664.421c-5.281-2.589-9.521-6.188-11.409-12.01a16.077,16.077,0,0,1-.7-4.674" transform="translate(16.507 1.071)" fill="#0f2347" fill-rule="evenodd"/>
          <path id="パス_2550" data-name="パス 2550" d="M52.7,47.223c-1.966-3.964-3.591-8.41-5.509-12.727a2.805,2.805,0,0,1-.293-1.243c.02-.46.185-1.009.634-1.005,1.573.006,2.591-1.1,3.765-1.823A165.585,165.585,0,0,1,77.343,17.506c1.628-.638,3.264-1.284,4.921-1.849C85.167,14.67,87,15.3,88.7,17.9a93.043,93.043,0,0,1,4.971,9.27c2.313,4.607,4.535,9.261,6.792,13.9a31.519,31.519,0,0,1,1.8,4.362,4.786,4.786,0,0,1-2.029,5.983c-2.513,1.734-5.314,2.951-7.979,4.424q-8.686,4.8-17.433,9.521c-2.393,1.3-4.8,2.573-7.232,3.782-1.988.99-3.14.677-4.425-1.124a49.274,49.274,0,0,1-3.188-5.6c-2.6-4.865-4.843-9.9-7.28-15.192M55.948,49c1.38,2.858,3.342,7.046,5.4,11.182,1.054,2.113,2.242,4.158,3.437,6.2.7,1.2,1.041,1.23,2.265.577.881-.471,1.777-.933,2.656-1.41Q78.474,60.773,87.251,56c3.4-1.842,6.827-3.632,10.222-5.486,3.179-1.745,3.485-2.7,2.027-6.048-1.829-4.207-3.908-8.3-5.928-12.412-2.077-4.246-4.123-8.51-6.527-12.583-1.217-2.07-2.263-2.422-4.472-1.573C77.4,19.9,72.22,21.9,67.22,24.339a176.283,176.283,0,0,0-16.9,9.354.914.914,0,0,0-.436,1.365c1.719,4.255,3.57,8.447,6.061,13.94" transform="translate(40.088 13.005)" fill="#0f2347" fill-rule="evenodd"/>
          <path id="パス_2551" data-name="パス 2551" d="M67.013,83.115c-4.4-.686-8.792-1.311-13.163-2.059a224.99,224.99,0,0,1-31.518-7.4,27.862,27.862,0,0,1-4.1-1.569c-1.883-.955-2.1-2.239-.616-3.726,11.355-11.4,23.292-22.172,35.651-32.475a11.82,11.82,0,0,1,1.766-1.22c1.923-1.079,3.225-.523,3.774,1.61.892,3.465,1.593,6.974,2.19,10.5,1.879,11.145,3.871,22.274,6.1,33.356a1.09,1.09,0,0,0,.6.909,1.093,1.093,0,0,1,.668,1.41c-.228.607-.82.608-1.352.66M19.362,70.085c.15.219.514.287.842.417a109.135,109.135,0,0,0,11.683,3.587,286,286,0,0,0,31.989,6.282c1.061.16.977-.282.824-1.054C63.446,73,62.157,66.693,61.048,60.349c-1.287-7.4-2.354-14.844-4.1-22.157-.473-1.986-.5-2.011-2.083-.7-4.555,3.758-9.02,7.623-13.436,11.546q-8.48,7.531-16.639,15.389c-1.877,1.8-3.613,3.756-5.433,5.663" transform="translate(14.222 29.175)" fill="#0f2347" fill-rule="evenodd"/>
          <path id="パス_2552" data-name="パス 2552" d="M38.094,44.125c-4.485.007-8.18-2.048-11.62-4.624-4.565-3.422-7.61-7.836-8.256-13.647a20.776,20.776,0,0,1,1.565-10.29A25.149,25.149,0,0,1,31.205,2.354C37.914-1.235,44.5-.72,50.532,3.9a21.021,21.021,0,0,1,8.749,16.945c.134,9.517-7.067,19.521-15.892,22.461a17.606,17.606,0,0,1-2.6.627,16.046,16.046,0,0,1-2.693.191m-17.746-20.3a16.077,16.077,0,0,0,.7,4.674c1.888,5.822,6.128,9.42,11.409,12.01a13.262,13.262,0,0,0,12.664-.421,21.517,21.517,0,0,0,7.456-6.508c4.95-6.926,6.277-15.048,1.38-22.663-5.854-9.105-15.975-11.251-24-5.1a23.278,23.278,0,0,0-9.615,18.012" transform="translate(15.472 0)" fill="#0f2347" fill-rule="evenodd"/>
          <path id="パス_2553" data-name="パス 2553" d="M54.637,47.96c-2.491-5.494-4.342-9.686-6.061-13.94a.914.914,0,0,1,.436-1.365,176.283,176.283,0,0,1,16.9-9.354c5-2.441,10.177-4.435,15.354-6.442,2.209-.849,3.255-.5,4.472,1.573,2.4,4.073,4.45,8.337,6.527,12.583,2.02,4.116,4.1,8.205,5.928,12.412,1.458,3.344,1.152,4.3-2.027,6.048-3.394,1.855-6.82,3.645-10.222,5.486q-8.778,4.755-17.55,9.545c-.879.477-1.775.939-2.656,1.41-1.224.653-1.569.621-2.265-.577-1.194-2.038-2.383-4.084-3.437-6.2-2.053-4.136-4.016-8.324-5.4-11.182" transform="translate(41.399 14.043)" fill="#e86b65" fill-rule="evenodd"/>
          <path id="パス_2554" data-name="パス 2554" d="M44.416,28.368a2.89,2.89,0,0,1-.556,1.406,2.4,2.4,0,0,1-1.026.809,1.974,1.974,0,0,1-1.237.061,2.333,2.333,0,0,1-1.22-.875,2.376,2.376,0,0,1-.547-1.328A11.7,11.7,0,0,0,39.62,27a31.651,31.651,0,0,0-1.1-4.227q-2.32.045-4.6.054c-1.523.007-3.049.026-4.57.056-.221.647-.412,1.313-.571,1.986s-.313,1.335-.46,1.986c-.126.5-.234,1.018-.332,1.554a2.9,2.9,0,0,1-.67,1.406,2.175,2.175,0,0,1-1.361.848,2.041,2.041,0,0,1-1.313-.239A2.422,2.422,0,0,1,23.7,29.4a2.657,2.657,0,0,1-.249-1.588,11.711,11.711,0,0,1,.443-2.285c.219-.751.43-1.5.625-2.248a82.573,82.573,0,0,1,4.3-12.484c.148-.349.3-.688.464-1.013s.317-.649.464-.976c.176-.351.347-.725.521-1.126a6.289,6.289,0,0,1,.612-1.105,3.721,3.721,0,0,1,.84-.864,1.968,1.968,0,0,1,1.2-.358,2.211,2.211,0,0,1,1.575.592A23.018,23.018,0,0,1,38.7,11.673,71.654,71.654,0,0,1,41.684,18.2c.521-.026,1.035-.028,1.534-.006a1.956,1.956,0,0,1,1.352.67,2.037,2.037,0,0,1,.619,1.12,2.3,2.3,0,0,1-.108,1.159,2.348,2.348,0,0,1-.67.976,2.493,2.493,0,0,1-1.141.568q.381,1.308.664,2.673c.193.913.351,1.831.48,2.749ZM36.741,18.215q-.718-1.683-1.528-3.346a25.1,25.1,0,0,0-1.827-3.159q-.743,1.653-1.393,3.283t-1.206,3.316c1.174-.028,2.205-.046,3.09-.048s1.84-.019,2.864-.046" transform="translate(20.02 4.573)" fill="#fff"/>
          <path id="パス_2555" data-name="パス 2555" d="M68.309,49.417c-1.074.332-1.851.267-2.322-.189a2.9,2.9,0,0,1-.831-1.833l-6.39-14.489a1.914,1.914,0,0,1-1.15.147,2.5,2.5,0,0,1-1.052-.453,2.2,2.2,0,0,1-.718-.9,1.932,1.932,0,0,1-.128-1.159,5.544,5.544,0,0,1,1.1-2.487,14.9,14.9,0,0,1,1.9-2.029,15.477,15.477,0,0,1,3.5-2.356,8.957,8.957,0,0,1,4.116-.875,7.667,7.667,0,0,1,3.535.872,6.552,6.552,0,0,1,2.385,2.12,6.3,6.3,0,0,1,1.026,3,7.784,7.784,0,0,1-.564,3.55,6.958,6.958,0,0,1,3.517,1.5,6.4,6.4,0,0,1,1.936,2.79A7.544,7.544,0,0,1,78.5,40.1a9.056,9.056,0,0,1-1.259,3.582,7.2,7.2,0,0,1-1.651,1.9,17.063,17.063,0,0,1-2.248,1.569,24.661,24.661,0,0,1-2.456,1.25c-.831.371-1.6.681-2.315.935ZM64.347,33.77c.428-.189.857-.377,1.285-.568a6.618,6.618,0,0,0,1.211-.681,5.5,5.5,0,0,0,1.035-.95,3.575,3.575,0,0,0,.69-1.285,1.856,1.856,0,0,0-.221-1.8,2.273,2.273,0,0,0-1.6-.892,4.246,4.246,0,0,0-2.383.3A8.085,8.085,0,0,0,62.3,29.131ZM71.911,37a6.144,6.144,0,0,0-1.532-.093,6.253,6.253,0,0,0-1.358.258,7.937,7.937,0,0,0-1.282.521c-.419.211-.87.441-1.361.684L68.9,44.081c.525-.23,1.076-.492,1.654-.792a8.682,8.682,0,0,0,1.584-1.039,6.9,6.9,0,0,0,1.246-1.337A3.489,3.489,0,0,0,74,39.234a4.648,4.648,0,0,0-.688-1.469,2.235,2.235,0,0,0-1.4-.764" transform="translate(47.596 19.482)" fill="#fff"/>
          <path id="パス_2556" data-name="パス 2556" d="M42.617,59.6a2.338,2.338,0,0,1,1.395-.714,2.548,2.548,0,0,1,1.434.21,2.2,2.2,0,0,1,1.016.97,2.261,2.261,0,0,1,.178,1.584,4.263,4.263,0,0,1-.87,1.7c-.436.527-.864,1.005-1.3,1.443a9.621,9.621,0,0,1-3.3,2.324,9.106,9.106,0,0,1-3.665.72,8.871,8.871,0,0,1-3.639-.866,9.443,9.443,0,0,1-3.2-2.513,11.051,11.051,0,0,1-1.421-2.1,10.738,10.738,0,0,1-.89-2.33,14.074,14.074,0,0,1-.434-3.745,13.48,13.48,0,0,1,.6-3.787,14.049,14.049,0,0,1,1.614-3.468A10.689,10.689,0,0,1,32.7,46.248a17.113,17.113,0,0,1,2.229-1.46q1.13-.618,2.387-1.157c.48-.206.977-.406,1.489-.6a9.73,9.73,0,0,1,1.565-.447,6.806,6.806,0,0,1,1.606-.119,4.787,4.787,0,0,1,1.571.336,5.417,5.417,0,0,1,1.07.629,6.524,6.524,0,0,1,1,.913,7.042,7.042,0,0,1,.809,1.089,4.752,4.752,0,0,1,.5,1.107,2.941,2.941,0,0,1,.058,1.013,2.273,2.273,0,0,1-.3.939,2.224,2.224,0,0,1-1.623,1.076,1.993,1.993,0,0,1-1.356-.187,2.412,2.412,0,0,1-.77-.76c-.191-.3-.377-.6-.556-.9a1.489,1.489,0,0,0-.768-.629,2.126,2.126,0,0,0-.46.039,17.316,17.316,0,0,0-2.615.946A13.072,13.072,0,0,0,36.1,49.524a9.858,9.858,0,0,0-1.962,1.957,7.283,7.283,0,0,0-1.215,2.495,9.853,9.853,0,0,0-.334,3.327,7.73,7.73,0,0,0,.931,3.17A5.048,5.048,0,0,0,34.747,62a5.419,5.419,0,0,0,1.686.97,4.259,4.259,0,0,0,1.875.223,4.072,4.072,0,0,0,1.834-.679,6.454,6.454,0,0,0,1.371-1.322,17.631,17.631,0,0,0,1.1-1.591" transform="translate(23.863 36.295)" fill="#0f2347"/>
        </g>
      </g>
    </g>
  </g>
</svg>
