<svg xmlns="http://www.w3.org/2000/svg" xmlns:xlink="http://www.w3.org/1999/xlink" width="275" height="275" viewBox="0 0 275 275">
  <defs>
    <clipPath id="clip-path">
      <circle id="楕円形_41" data-name="楕円形 41" cx="137.5" cy="137.5" r="137.5" transform="translate(824 1732)" fill="#fff"/>
    </clipPath>
    <clipPath id="clip-path-2">
      <rect id="長方形_69" data-name="長方形 69" width="253.288" height="266.109" fill="none"/>
    </clipPath>
  </defs>
  <g id="グループ_682" data-name="グループ 682" transform="translate(-824 -1561)">
    <circle id="楕円形_4" data-name="楕円形 4" cx="137.5" cy="137.5" r="137.5" transform="translate(824 1561)" fill="#fff"/>
    <g id="マスクグループ_3" data-name="マスクグループ 3" transform="translate(0 -171)" clip-path="url(#clip-path)">
      <g id="グループ_15" data-name="グループ 15" transform="translate(856.712 1766)">
        <g id="グループ_14" data-name="グループ 14" clip-path="url(#clip-path-2)">
          <path id="パス_80" data-name="パス 80" d="M139.212,257.383c3.482-5.814,9.047-9.458,14.154-13.57a45.714,45.714,0,0,1,5.915-4.008c.144-.083.328-.13.387-.39-1.313.267-1.456-.908-1.935-1.6-4.6-6.658-6.236-14.314-7.317-22.123a170.546,170.546,0,0,1-.953-31c.337-7.645.957-15.263,1.986-22.846a109.154,109.154,0,0,1,3.054-15.108,12.189,12.189,0,0,1,1.087-2.748c.375-.656.137-.764-.488-.746a3.465,3.465,0,0,1-2.384-.586,1.8,1.8,0,0,1-.8-1.609,75.025,75.025,0,0,1,1.827-16,.969.969,0,0,0-.371-1.168,33.531,33.531,0,0,1-12.361-21.108,47.061,47.061,0,0,1,4.159-29.11,20.723,20.723,0,0,1,2.522-3.965,3.822,3.822,0,0,1,3.9-1.582c.8.151,1.613.21,2.418.331s1.6.267,2.489.418a34.629,34.629,0,0,1-.741-6.156c-.018-.261-.038-.524-.03-.784.016-.513.077-1.061.722-1.113s.817.454.891.975c.131.919.243,1.843.362,2.764a21.686,21.686,0,0,0,.7,4.118.9.9,0,0,0,.737.737,62.861,62.861,0,0,1,9.342,2.458,1.239,1.239,0,0,0,.3.043,9.657,9.657,0,0,1,4.931-6.956c1.159-.6,2.35-1.141,3.557-1.644a3.313,3.313,0,0,0,1.258-.7,6.49,6.49,0,0,0-2.7-.3,18.269,18.269,0,0,1-4.084.119,4.086,4.086,0,0,1-3.33-2.355c-.4-.838-.732-1.707-1.1-2.561a7.659,7.659,0,0,0-3.212-3.79c-.464-.267-.984-.6-.641-1.222.359-.652.977-.535,1.53-.245a8.021,8.021,0,0,1,2.642,2.366c.167.22.33.442.6.813-.051-3.677.274-7.146.054-10.62-.117-1.837.149-2.1,1.95-2.078a9.441,9.441,0,0,0,3.083-.488,3.265,3.265,0,0,0,1.709-1.278,9.455,9.455,0,0,1-6.677-6.477c-1-2.768-.083-4.994,2.519-6.374.578-.309.715-.536.436-1.168a10.631,10.631,0,0,1-.189-8.315,5.5,5.5,0,0,1,1.474-2.113.508.508,0,0,1,.627-.115c5.088,2.323,10.469,1.763,15.805,1.591,4.77-.153,9.544-.353,14.233.812a17.475,17.475,0,0,1,7.351,3.445,7.561,7.561,0,0,1,2.242,9.2,4.436,4.436,0,0,1-.358.793,2.625,2.625,0,0,0,.245,3.27c2.624,3.769,2.5,7.386-.341,11.006a20.885,20.885,0,0,1-7.369,6.014c-.254.124-.443.227-.5.528-.481,2.649-2.3,4.141-4.565,5.226a22.619,22.619,0,0,1-3.952,1.354,1.172,1.172,0,0,0-1,1.281,14.945,14.945,0,0,0,.43,4.664c.154.546.386,1.292-.337,1.517-.767.24-1.14-.461-1.331-1.081a14.083,14.083,0,0,1-.267-6.39,2.013,2.013,0,0,1,1.514-1.541c1.063-.388,2.15-.712,3.215-1.1a7.711,7.711,0,0,0,3.709-2.494,4.02,4.02,0,0,0,.254-4.5,2.107,2.107,0,0,0-2.06-1.038c-.716.045-1.382.482-2.139.241-.159-.05-.264.193-.372.326-.279.341-.62.589-1.047.292s-.306-.7-.137-1.1a15.241,15.241,0,0,0,1.166-4.273,2.735,2.735,0,0,0-.553-2.04c-.741-1-1.824-1.724-2.364-2.89-.1-.207-.289-.143-.458-.128a9.251,9.251,0,0,1-3.5-.613,2.341,2.341,0,0,1-1.55-1.195c-.283-.64-.744-.748-1.337-.866a12.125,12.125,0,0,1-6.115-3.149c-.391-.375-.669-.472-1.06-.088a.484.484,0,0,1-.227.126c-1.481.274-1.867,1.3-1.986,2.651a14.888,14.888,0,0,1-.679,2.876c-1.1,3.7-2.921,5.2-6.762,5.41-.84.047-.923.328-.872,1.026.184,2.557-.016,5.114-.059,7.673-.062,3.628.6,4.563,4.022,5.783,2.112.755,4.332,1.1,6.489,1.682,2.062.558,3.789,1.5,4.41,3.75a3.823,3.823,0,0,1-.169,2.474c-.081.213-.17.473-.438.5-.343.033-.416-.278-.505-.51-.241-.651-.488-1.305-.677-1.975a3.467,3.467,0,0,0-2.707-2.321c-.3-.089-.341.05-.377.29a2.126,2.126,0,0,1-1.276,1.559A33.374,33.374,0,0,1,175.731,66a9.059,9.059,0,0,0-5.149,5.486c-.128.322-.281.636-.45,1.014.393.168.789.326,1.178.5.512.234.609.523.366,1.106a15.607,15.607,0,0,0-1.225,9.271,6.535,6.535,0,0,0,5.278,5.3,4.793,4.793,0,0,0,5.189-2.187,25.577,25.577,0,0,0,1.827-3.947,13.286,13.286,0,0,1,10.1-8.344,6.02,6.02,0,0,1,4.223.622c.275.149.677.331.585.67-.093.355-.5.11-.758.114-3.495.054-6.733.821-9.42,3.242a12.1,12.1,0,0,0-3.053,4.507,32.831,32.831,0,0,1-1.64,3.653,6.855,6.855,0,0,1-9.067,2.981,8.646,8.646,0,0,1-5.3-7.434,17.538,17.538,0,0,1,1.087-7.881c.186-.5.012-.561-.368-.694a92.457,92.457,0,0,0-15.657-3.739c-.058-.009-.117-.009-.175-.018-1.171-.175-2.544-.756-3.474-.262s-1.46,1.822-2.051,2.849a39.031,39.031,0,0,0-4.922,14.236,55.07,55.07,0,0,0-.56,11.649,33.09,33.09,0,0,0,25.787,30.245,37.246,37.246,0,0,0,31.765-6.215c6.493-4.646,9.965-11.22,11.629-18.84,1.445-6.619.578-13.105-1.453-19.492a36.177,36.177,0,0,0-5.593-11.053A13.979,13.979,0,0,0,202.212,71c-.48-.4-.874-.9-.4-1.491.508-.632,1.1-.315,1.605.091a18.44,18.44,0,0,1,3.974,4.716,44.056,44.056,0,0,1,6.164,16.544c.589,3.523,1.331,7.021,1.643,10.589q.35,4,.46,8.011c0,.2-.139.479.182.6v1.222a28.446,28.446,0,0,0-.128,4.358c-.018.346-.179.735.128,1.054v1.222c-.3.079-.18.326-.19.5-.07,1.422-.113,2.848-.192,4.27a94.272,94.272,0,0,1-2.558,17.482c-.425,1.705-1.063,2.972-3.089,2.859-.221-.013-.41.01-.483.346-.351,1.645-.72,3.287-1.138,4.916a201.532,201.532,0,0,0-5.5,32.267c-.614,6.872-.85,13.758-.917,20.653-.128,13.134.458,26.216,3.1,39.135.216,1.06-.2,1.543-1.276,1.532-2.181-.025-4.361-.047-6.542-.08-.4-.007-.649-.043-.492.541a35.082,35.082,0,0,1,.844,4.981,116.882,116.882,0,0,1,.989,14.612,2.749,2.749,0,0,1-2.215,3.028,24.163,24.163,0,0,1-3.922.8,8.7,8.7,0,0,0-2.6.346H181.8c-.3-.332-.7-.17-1.052-.191a93.9,93.9,0,0,1-12.208-1.388c-2.593-.526-3.3-1.478-3.121-4.123.034-.512-.054-.653-.588-.562a88.638,88.638,0,0,1-19.928.6c-2.072-.127-4.366.01-5.693-2.192Zm16.16-132a99.576,99.576,0,0,0-1.6,15.118c-.016.669.1.876.817.883,8.057.071,16.1.734,24.152.9a262.871,262.871,0,0,0,31.549-1.035c.256-.027.463,0,.555-.376a95.29,95.29,0,0,0,2.031-10.52,139.908,139.908,0,0,0,.712-25.606c-.009-.175.088-.431-.249-.478a.823.823,0,0,0-.11.2c-1.566,7.008-4.485,13.341-10.119,17.973-12.637,10.385-26.65,12.191-41.761,6.181a33.838,33.838,0,0,1-5.978-3.244m35.2-88.6c2.86,1.1,3.426,1.042,5.382.362a9.51,9.51,0,0,0,2.2-1.171c.4-.267.82-.467,1.151-.049.31.393-.009.779-.306,1.063a5.948,5.948,0,0,1-2.53,1.622c-.42.112-.613.271-.2.68.533.531,1,1.13,1.519,1.678a4.456,4.456,0,0,1,1.242,3.986,15.251,15.251,0,0,1-.4,1.773c-.17.566-.071.739.551.613,2.53-.515,4.1.35,5.019,2.8.243.656.5.618.993.316a21.156,21.156,0,0,0,6.057-5.418,6.5,6.5,0,0,0,1.433-5.446,9.3,9.3,0,0,0-1.547-3.271,5.048,5.048,0,0,1-.917-1.941,5.271,5.271,0,0,1,.791-3.209c1.164-2.6,1-5.277-1.266-7.279a13.611,13.611,0,0,0-3.823-2.341c-3.734-1.562-7.672-1.86-11.66-1.916-4.617-.068-9.218.577-13.844.226-2.57-.195-5.1-.447-7.376-1.916a10.542,10.542,0,0,0-.263,7.978c.976,2.489.953,2.5-1.278,3.849-1.572.952-2.083,2.046-1.561,3.806a8.7,8.7,0,0,0,5.479,5.865c.483.189.512-.143.589-.366A38.355,38.355,0,0,0,177.1,35.07c.115-.508-.085-.644-.537-.534a6.155,6.155,0,0,1-3.309-.439,1.681,1.681,0,0,1-1.016-.781c-.152-.283-.474-.585-.227-.944.225-.324.531-.022.8-.014a2.261,2.261,0,0,1,.779.072c2.009.868,3.97.331,5.951-.135.755-.181.811-.426.373-1.01a4.4,4.4,0,0,1-.9-2.751c0-.246.031-.521.245-.617.272-.124.386.168.521.348.586.791,1.166,1.586,1.759,2.37a11.549,11.549,0,0,0,3.071,2.919c2.986,1.882,6.025,2.244,9.162.377.3-.177.607-.335.919-.487.256-.122.541-.311.784,0s.027.577-.169.771a11.7,11.7,0,0,1-1.128.952,11.643,11.643,0,0,1-3.607,1.618M143.815,254.341c2.573,0,5.121.05,7.668-.011,4.97-.115,9.942-.205,14.911-.411a1.341,1.341,0,0,0,1.433-.955A33.394,33.394,0,0,1,175.2,241.65c-1.338,0-2.576-.029-3.81.011a1.2,1.2,0,0,1-1.2-.66,45.776,45.776,0,0,1-2.359-4.26c-5.066-10.708-7.45-22.1-8.546-33.809-.576-6.175-.511-12.376-.474-18.568a114.038,114.038,0,0,1,.678-13.145,72.343,72.343,0,0,1,5.064-18.926,2.211,2.211,0,0,0,.2-.662c.032-.439.023-.9-.516-1.065a.885.885,0,0,0-1.164.489c-.238.5-.448,1.007-.654,1.515a74.791,74.791,0,0,0-5.4,27.429c-.1,10.026-.338,20.058,1.2,30.024a109,109,0,0,0,5.68,22.378c.878,2.3,1.918,4.524,3.008,6.82a29.828,29.828,0,0,1-3.6.266c-.3.022-.644-.075-.828.318a2.127,2.127,0,0,1-1.032.9,68.835,68.835,0,0,0-9.62,6.607,96.364,96.364,0,0,0-8.016,7.025m42.349-12.605v-.093c-2.267,0-4.535,0-6.8,0-.715,0-1.521-.224-1.823.793-.053.176-.345.3-.548.4a6.885,6.885,0,0,0-2.165,1.867,42.111,42.111,0,0,0-6.869,13.026c-.172.5,0,.6.414.653a123.308,123.308,0,0,0,13.511,1.456,66.52,66.52,0,0,0,14.154-.861c.486-.091.468-.31.447-.635-.114-1.77-.2-3.539-.355-5.305a82.615,82.615,0,0,0-1.4-10.529c-.128-.576-.35-.8-.977-.793-2.527.04-5.057.018-7.585.018m-.93,22.477c1.919.04,3.837-.058,5.749-.2a19.115,19.115,0,0,0,4.786-.876,1.76,1.76,0,0,0,.734-2.234c-.294-.624-.788.057-1.2,0a2.444,2.444,0,0,0-.678.133,70.115,70.115,0,0,1-18.162.274c-2.833-.288-5.65-.692-8.465-1.107-.236-.036-.557-.263-.714.2a1.555,1.555,0,0,0,1.143,2.205,8.444,8.444,0,0,0,.935.206,109.965,109.965,0,0,0,15.874,1.4m-18.512-8.694c-.86.1-1.631.213-2.408.267-5.284.371-10.58.314-15.87.49-2.056.072-4.114.227-6.179.1-.631-.04-.8.688-.959,1.182s.339.53.651.613a17.737,17.737,0,0,0,3.449.461,96.651,96.651,0,0,0,20.1-.692c.241-.036.461-.033.549-.31.213-.685.431-1.366.667-2.109m6.641-194.727a26.071,26.071,0,0,1-3.648-1.861c.779,1.856,2.177,1.942,3.648,1.861" fill="#0f2347" fill-rule="evenodd"/>
          <path id="パス_81" data-name="パス 81" d="M176.893,72.71a3.739,3.739,0,0,1-1.375-.2c-.58-.238-.634-.675-.116-1.032a3.923,3.923,0,0,1,1.792-.638c7.3-.842,14.487-2.417,21.734-3.617.229-.038.459-.063.692-.08.438-.027.845.06.953.556s-.23.756-.636.9a25.244,25.244,0,0,1-3.718.912c-6.06,1.229-12.143,2.341-18.286,3.093-.346.041-.694.068-1.04.1" fill="#0f2347" fill-rule="evenodd"/>
          <path id="パス_82" data-name="パス 82" d="M182.669,43.609a6.242,6.242,0,0,1-1.074,2.883,1.057,1.057,0,0,1-1.357.478,1.071,1.071,0,0,1-.577-1.319,10.922,10.922,0,0,1,1-2.685c.256-.536.606-.97,1.276-.793s.755.73.728,1.436" fill="#0f2347" fill-rule="evenodd"/>
          <path id="パス_83" data-name="パス 83" d="M178.713,55.408a3.7,3.7,0,0,1-.438-.157,4.631,4.631,0,0,0-2.979-.288.874.874,0,0,1-1.121-.58c-.18-.586.168-.939.662-1.161a4.661,4.661,0,0,1,4.422.827.818.818,0,0,1,.288.932c-.137.346-.427.452-.834.427" fill="#0f2347" fill-rule="evenodd"/>
          <path id="パス_84" data-name="パス 84" d="M160.279,57.217c.011-.49.027-.863.452-.975.442-.113.638.209.748.553a15.767,15.767,0,0,0,1.657,3.432,2.317,2.317,0,0,1,.3.717c.135.631-.236.953-.846.724a1.489,1.489,0,0,1-.628-.441,9.872,9.872,0,0,1-1.682-4.01" fill="#0f2347" fill-rule="evenodd"/>
          <path id="パス_85" data-name="パス 85" d="M158.52,59.7c-.009-.368.04-.647.353-.7.355-.065.5.213.611.5a12.5,12.5,0,0,0,1.781,3.265c.292.379.486.876.005,1.236a.912.912,0,0,1-1.357-.32A8.879,8.879,0,0,1,158.52,59.7" fill="#0f2347" fill-rule="evenodd"/>
          <path id="パス_86" data-name="パス 86" d="M162.134,55.454c-.018-.416.027-.683.339-.762s.494.153.584.4a10.952,10.952,0,0,0,1.93,2.981c.276.344.683.822.211,1.216s-.961.051-1.282-.347a8.482,8.482,0,0,1-1.782-3.491" fill="#0f2347" fill-rule="evenodd"/>
          <path id="パス_87" data-name="パス 87" d="M183.482,37.512a2.705,2.705,0,0,1,2.132,1.863.546.546,0,0,1-.249.6.473.473,0,0,1-.677-.191,2.759,2.759,0,0,0-1.446-1.181c-.263-.113-.549-.326-.472-.643.083-.345.433-.426.712-.449" fill="#0f2347" fill-rule="evenodd"/>
          <path id="パス_88" data-name="パス 88" d="M190.573,36.782a11.627,11.627,0,0,0,3.606-1.618,11.582,11.582,0,0,0,1.128-.952c.2-.194.4-.472.17-.771s-.528-.119-.784,0c-.312.152-.622.31-.919.487-3.138,1.867-6.176,1.505-9.162-.377a11.534,11.534,0,0,1-3.071-2.919c-.593-.784-1.173-1.579-1.759-2.37-.135-.18-.249-.472-.521-.348-.215.1-.242.372-.245.617a4.4,4.4,0,0,0,.9,2.751c.438.584.382.829-.373,1.01-1.98.466-3.941,1-5.95.135a2.263,2.263,0,0,0-.779-.072c-.27-.008-.577-.31-.8.014-.247.359.076.661.227.945a1.688,1.688,0,0,0,1.017.78,6.152,6.152,0,0,0,3.308.44c.453-.11.653.025.537.533a38.354,38.354,0,0,1-1.086,4.008c-.078.223-.107.555-.59.366a8.7,8.7,0,0,1-5.478-5.865c-.523-1.76-.011-2.854,1.56-3.806,2.232-1.351,2.255-1.36,1.278-3.849a10.547,10.547,0,0,1,.263-7.978c2.28,1.469,4.807,1.721,7.377,1.916,4.626.351,9.227-.294,13.844-.226,3.988.056,7.925.354,11.66,1.916a13.62,13.62,0,0,1,3.822,2.341c2.271,2,2.431,4.677,1.267,7.279a5.264,5.264,0,0,0-.791,3.209,5.019,5.019,0,0,0,.917,1.941,9.3,9.3,0,0,1,1.546,3.271,6.5,6.5,0,0,1-1.432,5.446,21.174,21.174,0,0,1-6.058,5.418c-.5.3-.749.34-.992-.316-.914-2.452-2.489-3.317-5.019-2.8-.622.126-.721-.047-.552-.613a15,15,0,0,0,.4-1.773,4.455,4.455,0,0,0-1.241-3.986c-.518-.548-.986-1.147-1.52-1.678-.41-.409-.218-.568.2-.68A5.951,5.951,0,0,0,199,36.987c.3-.284.616-.67.306-1.063-.332-.418-.753-.218-1.152.049a9.51,9.51,0,0,1-2.2,1.171c-1.955.68-2.521.739-5.381-.362" fill="#e86b65" fill-rule="evenodd"/>
          <path id="パス_89" data-name="パス 89" d="M237.424,1.363a9.756,9.756,0,0,1,9.962.011c5.4,2.966,8.16,10.032,3.612,15.066a8.045,8.045,0,0,1-6.344,2.732c-2.4.094-2.362-1.124-5.428-.292-3.011.815-2.777,1.979-4.134,2.772-3.049,1.78-6.066-1.15-3.547-4.378,1.611-2.011,6.1-3.24,8.344-3.38,2.541-.1,7.234.481,6.912-3.729a4.888,4.888,0,0,0-7.831-3.341c-1.349,1.005-3.242,5.348-6.778,2.5-1.989-1.6,1.693-5.927,5.232-7.962" fill="#0f2347" fill-rule="evenodd"/>
          <path id="パス_90" data-name="パス 90" d="M222.239,24.254a4.091,4.091,0,0,1,4.576-2.087c3.11.634,4.793,4.608,1.71,6.474-1.59.94-3.662,1.425-5.154.061a3.563,3.563,0,0,1-1.132-4.448" fill="#0f2347" fill-rule="evenodd"/>
          <path id="パス_91" data-name="パス 91" d="M82.875,64.768q-10.216.395-20.419.789c-1.4.049-2.8.123-4.2.061-2.116-.084-3.079-1.089-3.042-3.2.072-4.3.147-8.593.317-12.889.425-10.583.016-21.158-.011-31.733-.006-1.736.135-3.471.234-5.2.038-.763.245-1.523,1.175-1.549.95-.026,1.181.751,1.222,1.5.162,3.037.306,6.077.415,9.116.468,13.042.2,26.08-.278,39.112-.052,1.389.178,2.047,1.734,1.807,1.369-.213,3.155.433,4.062-.415.922-.865.315-2.648.339-4.024.084-4.879.12-9.76.135-14.635,0-1.2.513-1.78,1.706-1.847,2.172-.117,4.335-.287,6.506-.412,1.175-.067,1.645.555,1.628,1.689-.073,5.889-.1,11.785-.231,17.674-.025,1.157.283,1.5,1.418,1.38a31.222,31.222,0,0,1,3.9-.159c1.01.024,1.262-.344,1.264-1.335.036-8.21.131-16.423.207-24.63.024-2.4.155-2.557,2.5-2.692,1.543-.091,3.084-.173,4.63-.231,2.081-.076,2.7.512,2.7,2.6.038,8.119.1,16.23.052,24.346-.007,1.333.381,1.654,1.624,1.52a39.7,39.7,0,0,1,4.336-.187c.934,0,1.22-.3,1.217-1.256-.018-5.41.037-10.818.057-16.228q.054-11.376.094-22.75c.009-1.748.407-2.164,2.1-2.175q2.391-.014,4.782-.012c2.454-.006,2.89.424,2.885,2.841-.024,12.556-.024,25.112-.1,37.674-.007,1.271.292,1.6,1.562,1.585a64.1,64.1,0,0,1,9.112.426c.438.059,1.159-.052,1.171.552.015.583-.686.559-1.133.64a122.842,122.842,0,0,1-17,1.619q-9.339.348-18.677.667Zm17.771-23.592h-.253q0,8.33,0,16.66c0,3.279,0,3.185,3.336,3.241,1.539.026,1.8-.529,1.8-1.927-.028-11.439.019-22.876.046-34.318.006-3.666.006-3.633-3.615-3.61-.962.006-1.342.225-1.335,1.283.039,6.222.02,12.448.02,18.671M83.314,48.739h-.14c0,3.046-.027,6.086.014,9.125.018,1.234-.582,2.83.249,3.6.815.763,2.4.044,3.633.178,1.182.129,1.463-.386,1.453-1.5-.062-7-.055-14-.071-21-.007-3.823-.007-3.788-3.84-3.647-1.018.04-1.325.376-1.314,1.368.042,3.957.016,7.917.016,11.871M67.03,53.223h-.171v.436c-.027,1.733-.047,3.469-.069,5.2-.03,3.461-.03,3.428,3.426,3.388,1.094-.009,1.523-.307,1.527-1.483.01-4.427.137-8.861.194-13.292.047-3.712.033-3.679-3.595-3.551-.988.037-1.355.333-1.328,1.353.056,2.648.016,5.3.016,7.944" fill="#0f2347" fill-rule="evenodd"/>
          <path id="パス_92" data-name="パス 92" d="M100.646,41.176c0-6.223.02-12.448-.02-18.67-.007-1.058.373-1.278,1.336-1.283,3.62-.024,3.62-.056,3.615,3.609-.027,11.442-.074,22.88-.047,34.319,0,1.4-.261,1.952-1.8,1.926-3.337-.056-3.335.038-3.335-3.241q0-8.329,0-16.66Z" fill="#e86b65" fill-rule="evenodd"/>
          <path id="パス_93" data-name="パス 93" d="M83.315,48.74c0-3.954.025-7.914-.016-11.872-.011-.991.295-1.327,1.314-1.368,3.833-.14,3.833-.175,3.84,3.648.016,7,.009,14,.07,21,.011,1.116-.27,1.631-1.452,1.5-1.237-.134-2.819.585-3.633-.178-.831-.774-.231-2.37-.249-3.6-.042-3.039-.015-6.079-.015-9.125Z" fill="#e86b65" fill-rule="evenodd"/>
          <path id="パス_94" data-name="パス 94" d="M67.03,53.223c0-2.647.04-5.3-.016-7.944-.027-1.02.34-1.316,1.328-1.353,3.628-.128,3.642-.161,3.595,3.551-.057,4.431-.184,8.865-.194,13.292,0,1.176-.433,1.474-1.527,1.483-3.456.04-3.456.073-3.426-3.388.022-1.736.042-3.472.069-5.2v-.436Z" fill="#e86b65" fill-rule="evenodd"/>
          <path id="パス_95" data-name="パス 95" d="M28.937,64.906c8.2.347,15.415,5.448,20.085,14.233,3.689,6.933,4.487,14.188.679,21.368-3.269,6.176-8.764,9.666-15.214,11.958-8.441,3-16.518,1.262-24.385-1.871-7.183-2.858-10.76-9.481-10-18A31.576,31.576,0,0,1,11.708,70.368c4.269-3.554,9.8-5.448,17.229-5.462M27.095,71.4c-.025,0-.052,0-.081-.006.066-1.111.088-2.222.221-3.323.127-.956-.218-1.134-1.11-1.043a21.42,21.42,0,0,0-11.35,4.348C6.806,77.7,2.787,86.025,3.215,96.22c.221,5.474,3.115,9.423,8.2,11.636a49.852,49.852,0,0,0,9.031,2.557c7.736,1.736,14.583-.36,20.957-4.688.876-.6.8-.842-.051-1.444-2.366-1.666-4.664-3.438-6.947-5.226a75.941,75.941,0,0,1-7.131-6.138c-.753-.754-1.579-1.6-1.386-2.744.211-1.254.056-2.5.15-3.741.375-5.013.708-10.022,1.054-15.032M49.876,89.661a18.183,18.183,0,0,0-.615-4.84c-2.144-8.984-9.569-16.186-18.108-17.671-1.128-.2-1.418.017-1.422,1.152a144.618,144.618,0,0,1-.982,18.346A5.569,5.569,0,0,0,31.2,92.485c.113.087.219.186.329.283,3.956,3.531,8.409,6.474,12.154,10.251.575.578.806.148,1.121-.2a18.343,18.343,0,0,0,5.075-13.161" fill="#0f2347" fill-rule="evenodd"/>
          <path id="パス_96" data-name="パス 96" d="M49.876,89.661A18.343,18.343,0,0,1,44.8,102.822c-.315.345-.546.775-1.121.2-3.745-3.777-8.2-6.72-12.154-10.251-.11-.1-.216-.2-.329-.283a5.569,5.569,0,0,1-2.448-5.837A144.618,144.618,0,0,0,29.731,68.3c0-1.135.294-1.351,1.422-1.152,8.539,1.485,15.964,8.687,18.108,17.671a18.183,18.183,0,0,1,.615,4.84" fill="#e86b65" fill-rule="evenodd"/>
          <path id="パス_97" data-name="パス 97" d="M105.168,152.438a18.49,18.49,0,0,1-4.142-1.15c-3-1.182-5.824-2.7-8.69-4.157a206.871,206.871,0,0,0-26.295-10.887c-2.82-.973-2.966-1.265-2.463-4.2A80.373,80.373,0,0,1,68.66,115.89c5.8-14.467,13.754-27.756,22.48-40.609,1.245-1.837,1.368-1.867,3.458-1.251a146.07,146.07,0,0,1,19.483,7.63c6.059,2.779,12.084,5.641,18.121,8.47,1.416.664,1.514,1.184.686,2.512-3.29,5.283-6.1,10.826-8.853,16.4-5.574,11.3-11.093,22.632-15.811,34.329a27.65,27.65,0,0,0-1.953,6.5,1.677,1.677,0,0,0,.011,1.02c.513,1.057.156,1.583-1.114,1.545M65.2,133.337c-.205.834.472.852.919,1.011,6.351,2.245,12.669,4.576,18.838,7.29,4.765,2.1,9.359,4.55,14.044,6.808a27.9,27.9,0,0,0,4.873,1.889c.294.079.7.341.73-.317a23.694,23.694,0,0,1,2.2-7.928c4-9.8,8.514-19.359,13.17-28.86,3.507-7.147,6.987-14.3,11.166-21.094.424-.683-.144-.683-.461-.831-6.2-2.879-12.4-5.8-18.631-8.614A152.678,152.678,0,0,0,94.2,75.751a1.246,1.246,0,0,0-1.628.575c-3.08,4.287-5.774,8.825-8.519,13.327a173.071,173.071,0,0,0-15.748,32.211A55.631,55.631,0,0,0,65.2,133.337" fill="#0f2347" fill-rule="evenodd"/>
          <path id="パス_98" data-name="パス 98" d="M103.144,86.121c-2.44-1.018-6.394-5.5-9.177-3.7-3.546,2.3-5.183,7.827-6.6,11.563a1.137,1.137,0,0,0,.53,1.3c2.827,1.247,5.448,2.89,8.275,4.137a1.2,1.2,0,0,0,1.579-.414c2.521-3.442,5.336-6.877,6.686-10.986.467-1.417-1.762-2.02-2.224-.613-1.276,3.884-4.071,7.18-6.455,10.435l1.579-.415c-2.828-1.247-5.448-2.89-8.276-4.138q.266.653.53,1.3c.7-1.838,1.445-3.649,2.3-5.424.354-.737,2.4-5.055,3.35-4.868,2.663.527,4.808,3,7.291,4.039,1.373.573,1.966-1.66.613-2.224" fill="#0f2347"/>
          <path id="パス_99" data-name="パス 99" d="M105.42,90.907c1.955,1.166,4.57,3.628,6.909,3.806,2.224.17,3.843.155,5.665,1.581a10.084,10.084,0,0,0,3.278,1.786c1.422.448,2.025-1.779.613-2.224-2.338-.737-4.009-3.405-6.611-3.415-3.592-.015-5.691-1.738-8.69-3.527a1.155,1.155,0,0,0-1.164,1.993" fill="#0f2347"/>
          <path id="パス_100" data-name="パス 100" d="M119.388,100.925c-2.892.059-4.514-2.109-6.911-3.449a56.547,56.547,0,0,0-7.874-3.323c-1.4-.523-1.993,1.708-.613,2.223a46.726,46.726,0,0,1,8.487,3.779c2.572,1.6,3.649,3.143,6.911,3.077a1.154,1.154,0,0,0,0-2.307" fill="#0f2347"/>
          <path id="パス_101" data-name="パス 101" d="M115.737,106.036c-5.963-.259-9.366-6.338-15.333-7.057-1.474-.179-1.458,2.13,0,2.307,5.91.712,9.112,6.786,15.333,7.057,1.489.065,1.481-2.242,0-2.307" fill="#0f2347"/>
          <path id="パス_102" data-name="パス 102" d="M111.356,112.852c-4.826.564-9.1-4.293-12.972-6.6a54.889,54.889,0,0,0-13.494-5.28,1.154,1.154,0,0,0-.613,2.224,52.23,52.23,0,0,1,15.545,6.7c3.556,2.4,6.931,5.807,11.534,5.268,1.46-.171,1.476-2.48,0-2.307" fill="#0f2347"/>
          <path id="パス_103" data-name="パス 103" d="M107.462,119.909c-5.3-.157-8.927-4.058-13.24-6.617A52.936,52.936,0,0,0,81,107.3a1.154,1.154,0,0,0-.613,2.224c5.381,1.429,10.374,4.262,15.056,7.223,4.059,2.566,7.008,5.325,12.024,5.473a1.154,1.154,0,0,0,0-2.307" fill="#0f2347"/>
          <path id="パス_104" data-name="パス 104" d="M103.747,128.226c-4.44,1.145-9.13-3.561-12.6-5.729-3.821-2.386-8.454-3.329-12.551-5.107-1.349-.586-2.524,1.4-1.164,1.993,5.591,2.426,11.179,4.037,16.245,7.571,3.127,2.18,6.752,4.511,10.685,3.5a1.154,1.154,0,0,0-.613-2.224" fill="#0f2347"/>
          <path id="パス_105" data-name="パス 105" d="M99.186,139.38c-4.693,0-8.733-3.83-12.824-5.772a61.226,61.226,0,0,0-12.424-4.652c-1.447-.337-2.062,1.887-.613,2.224a60.019,60.019,0,0,1,15.057,6.037c3.615,1.977,6.513,4.47,10.8,4.47a1.154,1.154,0,0,0,0-2.307" fill="#0f2347"/>
          <path id="パス_106" data-name="パス 106" d="M52.371,131.69c1.575-.04,2.067.371,2.332,1.795q2.514,13.6,5.025,27.2,2.5,13.494,4.993,26.987c.107.575.171,1.091.961,1.091a.662.662,0,0,1,.641.706c.013.559-.4.817-.845.926-1.425.354-2.851.705-4.289.977-14.394,2.684-28.294,7.092-42.066,11.952-3.054,1.081-3.665.746-4.312-2.384a216.224,216.224,0,0,1-3.077-22.415c-.6-5.975-1.441-11.929-2.177-17.892-.668-5.408-1.337-10.817-2.346-16.176-.272-1.46.076-1.984,1.577-2.462,6.194-1.972,12.527-3.411,18.854-4.866,7.793-1.789,15.6-3.505,23.408-5.241.51-.117,1.035-.156,1.321-.2M8.977,144.17c.022.153.031.222.043.29,1.163,5.938,1.822,11.943,2.561,17.939.766,6.206,1.712,12.391,2.222,18.625a177.145,177.145,0,0,0,2.869,20.11c.168.833.427,1.02,1.246.723,2.856-1.035,5.729-2.006,8.6-2.983A256.077,256.077,0,0,1,62.4,189.3c.766-.144.851-.4.683-1.092-.445-1.831-.867-3.671-1.18-5.528-2.7-16.046-6.1-31.966-8.7-48.029-.225-1.393-.269-1.433-1.642-1.119-10.005,2.282-20.015,4.549-30,6.893-3.943.921-7.884,1.857-11.735,3.122-.343.11-.92.045-.844.625" fill="#0f2347" fill-rule="evenodd"/>
          <path id="パス_107" data-name="パス 107" d="M46.641,143.294c.451,3.478.521,6.987.973,10.465l.847-1.112c-3.543.93-7.118,1.712-10.708,2.435.486.371.973.74,1.46,1.112-.276-3.527-.761-7.027-1.26-10.528-.269.472-.537.946-.806,1.418,3.785-.984,7.627-1.716,11.23-3.28,1.36-.591.185-2.579-1.165-1.993-3.4,1.478-7.1,2.119-10.677,3.049a1.18,1.18,0,0,0-.806,1.418c.47,3.3.917,6.594,1.177,9.916a1.174,1.174,0,0,0,1.459,1.112c3.592-.723,7.166-1.5,10.709-2.435a1.142,1.142,0,0,0,.847-1.112c-.452-3.478-.523-6.987-.973-10.465-.189-1.454-2.5-1.472-2.307,0" fill="#0f2347"/>
          <path id="パス_108" data-name="パス 108" d="M31.063,148.755c-2.593-.746-4.594-.023-6.917,1.173a10.377,10.377,0,0,1-6.776,1.218c-1.481-.133-1.468,2.174,0,2.307,1.7.153,3.491.476,5.144-.133,2.735-1.006,4.811-3.239,7.936-2.341a1.154,1.154,0,0,0,.613-2.224" fill="#0f2347"/>
          <path id="パス_109" data-name="パス 109" d="M30.757,154.554c-3.708.461-7.323,3.491-11.132,2.718-1.452-.3-2.072,1.928-.614,2.224,4.326.879,7.645-2.125,11.746-2.635,1.455-.182,1.473-2.491,0-2.307" fill="#0f2347"/>
          <path id="パス_110" data-name="パス 110" d="M19.562,167.083c3.743.407,7.172-3.109,10.889-2.233,1.447.341,2.058-1.883.612-2.224-4.116-.971-7.546,2.581-11.5,2.15-1.479-.16-1.463,2.148,0,2.307" fill="#0f2347"/>
          <path id="パス_111" data-name="パス 111" d="M18.693,175.971c1.986,6.223,2.2,12.8,3.163,19.227a1.136,1.136,0,0,0,1.112.847c4.71-.3,8.879-2.481,13.449-3.449a1.135,1.135,0,0,0,.847-1.112c-.813-6.336-2.283-12.577-2.433-18.984a1.17,1.17,0,0,0-1.459-1.112c-4.293.872-8.389,2.442-12.657,3.408-1.451.328-.836,2.552.613,2.224,4.267-.966,8.364-2.536,12.656-3.408L32.525,172.5a77.074,77.074,0,0,0,1.126,10.662c.119.728,1.593,7.329.692,7.518A49.979,49.979,0,0,0,28.5,192.6c-2.314.8-4.543,1.385-4.931-1.786-.23-1.9-.434-3.814-.666-5.719a53.035,53.035,0,0,0-1.988-9.737c-.451-1.411-2.678-.807-2.224.613" fill="#0f2347"/>
          <path id="パス_112" data-name="パス 112" d="M35.381,163.675c5.168-.128,9.984-1.8,14.909-3.2a1.154,1.154,0,0,0-.613-2.224c-4.719,1.344-9.338,3-14.3,3.121a1.154,1.154,0,0,0,0,2.307" fill="#0f2347"/>
          <path id="パス_113" data-name="パス 113" d="M38.482,172.882c2.393.921,5.63-.13,7.975-.725a47.054,47.054,0,0,0,8.733-3.041c1.341-.644.169-2.634-1.164-1.994a46.209,46.209,0,0,1-7.452,2.615c-2.125.6-5.3,1.759-7.479.921-1.39-.535-1.986,1.7-.613,2.224" fill="#0f2347"/>
          <path id="パス_114" data-name="パス 114" d="M40.068,179.454a18.169,18.169,0,0,0,3.972-1.534c1.813-.717,4.293.146,6.25-.171a7.407,7.407,0,0,0,1.852-.953c.474-.252.95-.5,1.426-.743.526-.268,1.447-.351.807-.6q-.344-.846-.688-1.694c-.025.034-.051.068-.076.1-.876,1.205,1.128,2.355,1.993,1.164l.074-.1a1.167,1.167,0,0,0-.69-1.694c-1.289-.492-3.8,1.456-4.85,2.017-1.639.875-3.941.146-5.752.234-1.755.085-3.206,1.5-4.931,1.746-1.468.213-.841,2.435.613,2.224" fill="#0f2347"/>
          <path id="パス_115" data-name="パス 115" d="M41.065,186.7a8.445,8.445,0,0,1,5.491-2.108c1.671-.02,3.206.63,4.909.535a4.281,4.281,0,0,0,2.336-.918c.629-.562,1.171-1.892,2.2-1.594a1.154,1.154,0,0,0,.613-2.224,3.314,3.314,0,0,0-2.547.088,2.165,2.165,0,0,0-.739.714c-1.187,1.595-2.564,1.8-4.51,1.445a10.692,10.692,0,0,0-9.39,2.429c-1.159.934.485,2.554,1.633,1.633" fill="#0f2347"/>
        </g>
      </g>
    </g>
  </g>
</svg>
