<svg xmlns="http://www.w3.org/2000/svg" xmlns:xlink="http://www.w3.org/1999/xlink" width="449" height="323" viewBox="0 0 449 323">
  <defs>
    <clipPath id="clip-path">
      <rect id="長方形_75" data-name="長方形 75" width="224.461" height="196.332" fill="none"/>
    </clipPath>
  </defs>
  <g id="グループ_659" data-name="グループ 659" transform="translate(-2136 -4068.618)">
    <g id="グループ_630" data-name="グループ 630" transform="translate(2360.539 4195.286)">
      <g id="グループ_26" data-name="グループ 26" transform="translate(0)" clip-path="url(#clip-path)">
        <path id="パス_285" data-name="パス 285" d="M152.414,3.628c.425.181.218.555.222.833q.781,34.546,1.536,69.1.651,29.376,1.321,58.753c.052,2.337.07,2.31,2.418,2.355q12.1.23,24.207.5,11.409.235,22.82.459a3.3,3.3,0,0,0,1.047-.131.988.988,0,0,0,.739-1.049,1.018,1.018,0,0,0-.816-1,5.844,5.844,0,0,0-1.269-.1q-22.767-.465-45.537-.9c-1.134-.02-1.353-.382-1.376-1.438q-.919-43.083-1.9-86.163-.446-20.156-.9-40.308c-.025-.973.222-1.209,1.189-1.219q38.984-.441,77.967-.944c.283,0,.567-.007.852-.013a1.279,1.279,0,0,0,1.291-.764A1.033,1.033,0,0,0,235.663.25c-.119-.074-.092-.159-.036-.251h-4.482c-.339.3-.75.148-1.119.152q-37.5.465-75.008.888c-1.072.013-2.008.079-2.6,1.092Z" transform="translate(-95.227 0)" fill="#0f2347" fill-rule="evenodd"/>
        <path id="パス_286" data-name="パス 286" d="M256.943,231.344c.425-.165.218-.506.222-.759q.781-31.506,1.535-63.017.652-26.791,1.321-53.583c.053-2.132.071-2.107,2.419-2.148q12.1-.21,24.207-.452,11.409-.214,22.82-.419a3.6,3.6,0,0,1,1.047.12.911.911,0,0,1,.739.956.955.955,0,0,1-.816.912,6.4,6.4,0,0,1-1.269.1q-22.767.424-45.537.817c-1.134.018-1.354.348-1.377,1.311q-.918,39.291-1.9,78.58c-.3,12.255-.577,24.508-.9,36.76-.025.888.222,1.1,1.189,1.113q38.984.4,77.967.861c.283,0,.568.006.852.011a1.3,1.3,0,0,1,1.291.7c.247.55-.058.935-.553,1.224-.119.068-.092.145-.037.229h-4.481c-.339-.27-.749-.135-1.119-.138q-37.5-.424-75.008-.81c-1.072-.011-2.007-.072-2.6-1Z" transform="translate(-256.943 -38.322)" fill="#0f2347" fill-rule="evenodd"/>
        <path id="パス_287" data-name="パス 287" d="M58.947,268.495c-.353-.1-.22-.4-.229-.622a254.435,254.435,0,0,0-2.58-27.91c-2.218-14.026-6.222-27.48-13.268-39.9a59.3,59.3,0,0,0-7.721-10.7,36.886,36.886,0,0,0-9.4-7.271,3.461,3.461,0,0,0-3.968.211,100.82,100.82,0,0,1-8.918,5.427,28.875,28.875,0,0,1-7.24,2.77c-.211.043-.416.092-.629.117-2.065.238-2.443-.076-2.641-2.124a13.78,13.78,0,0,0-.227-1.584.83.83,0,0,0-.8-.737.865.865,0,0,0-.809.586,4.142,4.142,0,0,0,3.7,6.184,18.353,18.353,0,0,0,6.846-1.847c4.323-1.8,8.174-4.433,12.077-6.961a1.373,1.373,0,0,1,1.692-.031,39.443,39.443,0,0,1,12.808,12c5.61,8.006,9.261,16.9,12.14,26.173a142.479,142.479,0,0,1,5.381,28.1c.753,7.467,1.186,14.954,1.486,22.451a9.283,9.283,0,0,0,.544,2.813c.112.3.238.659.609.67.422.011.537-.384.7-.7.189-.366.053-.858.445-1.135Z" transform="translate(165.514 -82.23)" fill="#0f2347" fill-rule="evenodd"/>
        <path id="パス_288" data-name="パス 288" d="M70.648,22.773A41.731,41.731,0,0,0,66.734,29.1a39.422,39.422,0,0,0-2.126,5.333c-.2.666-.5.843-1.189.824-6.008-.166-12.015-.289-18.025-.424-.247,0-.5-.009-.744-.009-.826-.013-1.408.315-1.458,1.2-.056.975.7,1.051,1.384,1.071,3.874.1,7.748.173,11.624.256,2.2.048,4.408.125,6.612.144.636.005.858.111.717.828a38.933,38.933,0,0,0-.573,11.99c.1.841-.365.732-.864.726q-8.534-.08-17.068-.156a6.645,6.645,0,0,0-1.065.024c-.663.095-1.166.427-1.134,1.169.031.673.5.989,1.13,1.065a6.6,6.6,0,0,0,.745.023c5.867.054,11.734.125,17.6.144.793,0,1.136.145,1.323,1.016a35.033,35.033,0,0,0,5.049,12.341c.515.764.218.815-.5.84q-10.609.362-21.213.764c-.144,0-.285.015-.425.019-.829.023-1.607.286-1.534,1.227.067.925.894,1.065,1.7,1.04q11.566-.416,23.134-.838a1.431,1.431,0,0,1,1.375.561,35.139,35.139,0,0,0,9.154,8.221c.939.595,1.087,1.079.613,2.088-.98,2.087-1.826,4.238-2.662,6.388-.29.75-.568,1-1.348.576a3.731,3.731,0,0,0-2.564-.51c-.358.074-.713.166-.822.574s.139.669.415.917a10.8,10.8,0,0,0,2.838,1.434c4.388,2.076,7.81,5.4,11.237,8.7,1.252,1.209,2.454,2.475,3.7,3.691a11.2,11.2,0,0,0,1.407,1.135,1.059,1.059,0,0,0,1.539-.086c.454-.544.185-1.06-.254-1.5-1.977-2-3.9-4.042-5.955-5.959a1.561,1.561,0,0,1-.4-2.148c1.4-3.069,2.714-6.173,4.033-9.276.241-.567.464-.793,1.171-.647a38.679,38.679,0,0,0,23.568-2.5,33.741,33.741,0,0,0,4.588-2.474c.353-.224.7-.445,1.184-.745.308,2.141.618,4.128.875,6.124.494,3.839,2.472,6.415,6.264,7.5.954.274,1.892.6,2.831.933a12.331,12.331,0,0,1,7.568,7.183c.635,1.539,1.145,3.132,1.694,4.707.1.294.078.694.515.681.382-.013.51-.364.6-.666a6.453,6.453,0,0,0-.114-4.092,15.032,15.032,0,0,0-9.6-9.99c-1.106-.388-2.222-.743-3.335-1.108a5.437,5.437,0,0,1-3.979-4.55c-.6-3.862-1.119-7.736-1.679-11.6a1.557,1.557,0,0,1,1.191-1.961,11.43,11.43,0,0,0,7.672-8.7c.306-1.46.553-2.93.824-4.4.149-.8.109-1.6-.86-1.757-.985-.165-1.227.632-1.376,1.407-.3,1.531-.56,3.072-.9,4.6a9.121,9.121,0,0,1-5.714,6.565c-3.025,1.317-3.559,2.043-3.006,5.337a1.935,1.935,0,0,1-1.068,2.29,36.46,36.46,0,0,1-47.292-6.617,35.234,35.234,0,0,1-8.437-17.994,35.463,35.463,0,0,1,4.135-23.581,35.221,35.221,0,0,1,19.812-16.6,36.341,36.341,0,0,1,43.766,16.745,37.314,37.314,0,0,1,3.384,8.592c.18.672.049.771-.613.69a8.592,8.592,0,0,0-4,.417c-.677.241-.908.111-1.1-.556A28.543,28.543,0,0,0,124.793,26.8,29.824,29.824,0,0,0,105.1,16.236a29.135,29.135,0,0,0-18.384,3.619c-9.076,5.213-14.462,13.033-15.466,23.481C70.073,55.593,74.807,65.345,85.042,72.1c8.484,5.6,17.784,6.492,27.3,2.881,9.231-3.5,15.309-10.17,18.318-19.572.335-1.045.713-1.144,1.68-.915a54.484,54.484,0,0,1,11.024,3.547,19.97,19.97,0,0,1,5.554,3.71,4.766,4.766,0,0,1,1.533,4.825c-.1.381-.149.77-.216,1.153a3.07,3.07,0,0,0,1.245,3.289,3.035,3.035,0,0,1,1.324,2.745c-.04,1.6-.049,3.2-.058,4.8,0,.449-.137,1.061.3,1.26.42.189.82-.258,1.189-.551,1.283-1.011,2.591-1.991,3.9-2.966a3.733,3.733,0,0,1,.838-.463c1.074-.438,2.2-.83,3.233-.018,1,.784.946,1.966.757,3.056-.573,3.31-3.344,6.46-7.123,6.163-1.825-.143-2.577.632-2.4,2.278a54.793,54.793,0,0,0,2.741,13.432c.076.2.146.4.223.6.271.67.546,1.474,1.462,1.2,1-.3.742-1.182.542-1.892-.522-1.845-1.108-3.667-1.5-5.549-.292-1.411-.313-1.42,1.1-1.842,3.313-.995,6.543-2.121,9.255-4.41a18.986,18.986,0,0,0,2.665-26.5,2.985,2.985,0,0,1-.719-2.034,10.509,10.509,0,0,0-5.429-9.729,28.43,28.43,0,0,0-4.352-2.247,191.857,191.857,0,0,1-18.51-8.657,4.339,4.339,0,0,1-2.5-3.135,36.822,36.822,0,0,0-16.117-22.5C110.648,6.578,98.29,5.711,85.57,11.032A35.077,35.077,0,0,0,73.083,19.95c-.454.5-.843.959-1.6.556a1.438,1.438,0,0,0-.632-.028q-13.547.189-27.093.384c-1.535.021-2.212.4-2.092,1.205.189,1.271,1.22,1.068,2.09,1.06q12.958-.173,25.921-.353c.245,0,.488,0,.971,0m31.313,52.589C88.767,74.87,78.4,67.623,74.512,56.454c-4-11.484-1.755-21.948,6.876-30.486,8.049-7.965,17.96-10.236,28.806-6.876C119.9,22.1,126.133,28.81,129.2,38.476c.146.458.281.858-.217,1.323-3.5,3.269-3.584,9.793-.178,13.252a1.317,1.317,0,0,1,.4,1.561,29.956,29.956,0,0,1-5.22,9.914,28.276,28.276,0,0,1-22.02,10.835M83.678,80.478a1.722,1.722,0,0,1,.2.076,41.989,41.989,0,0,0,6.011,2.417c.449.146.3.355.185.624-1.343,3.088-2.691,6.175-4.007,9.276-.214.5-.4.457-.745.149A32.726,32.726,0,0,0,80.4,89.307c-.4-.236-.431-.443-.256-.849,1.063-2.516,2.1-5.04,3.146-7.559.076-.177.085-.447.393-.422" transform="translate(27.548 -3.457)" fill="#0f2347" fill-rule="evenodd"/>
        <path id="パス_289" data-name="パス 289" d="M61.923,194.877a18.626,18.626,0,0,0-2.018-3.227,11.725,11.725,0,0,0-4.663-4.267,17.108,17.108,0,0,1-5.8-4.26,3.587,3.587,0,0,0-.467-.438c-.407-.335-.861-.578-1.335-.162-.426.368-.292.826-.071,1.267a9.028,9.028,0,0,0,3.13,3.566c.737.475.746.878.431,1.625-2.393,5.656-4.73,11.334-7.088,17.007-.764,1.842-.535,2.8,1.038,4.094a16.67,16.67,0,0,0,6.563,3.177c1.02.265,1.514-.323,1.865-1.148q2.381-5.525,4.772-11.048c.254-.585.51-1.171.771-1.75.113-.252.12-.627.454-.661.4-.039.35.386.457.613a132.805,132.805,0,0,0,12.7,21.9c6.379,8.725,14.36,15.4,24.546,19.268.57.217.632.454.447,1.017a55.345,55.345,0,0,0-2.665,16.45c-.063,3.591-.108,7.181-.171,10.772a10.778,10.778,0,0,0,.375,3.058c.09.339.148.8.546.836.46.045.6-.423.762-.775a7.966,7.966,0,0,0,.617-3.111c.137-4.867.025-9.743.358-14.606a59.274,59.274,0,0,1,2.3-12.008c.17-.6.393-.573.9-.42a71.527,71.527,0,0,0,24.555,2.806c10.435-.551,19.933-3.653,27.918-10.666a7.8,7.8,0,0,0,2.033-2.571c.164-.357.35-.76.009-1.09-.353-.348-.744-.106-1.068.1a13.968,13.968,0,0,0-1.732,1.238c-8.866,7.988-19.5,10.867-31.149,10.806a64.648,64.648,0,0,1-24.478-4.462c-9.427-3.861-16.734-10.325-22.641-18.508a139.956,139.956,0,0,1-11.772-20.238,1.2,1.2,0,0,1,.309-1.57,38.491,38.491,0,0,1,18.01-10.682,2.2,2.2,0,0,1,2.732.779,81.117,81.117,0,0,0,19.969,16.674,26.5,26.5,0,0,0,15.983,3.953,22.389,22.389,0,0,0,13.9-6.031c1.108-1.053,2.148-2.177,3.218-3.269a21.524,21.524,0,0,1,8.372-5.334,7.589,7.589,0,0,0,1.262-.551,1.038,1.038,0,0,0,.537-1.357,1,1,0,0,0-1.323-.582,31.277,31.277,0,0,0-3.014,1.045,24.12,24.12,0,0,0-8.009,5.727,31.462,31.462,0,0,1-4.154,3.977c-5.768,4.195-12.116,5.089-18.937,3.321-.683-.177-.616-.394-.315-.917a94.428,94.428,0,0,1,8.13-12.237,4.008,4.008,0,0,0,.521-.8,1.054,1.054,0,0,0-1.586-1.319,5.051,5.051,0,0,0-.881.914,64.927,64.927,0,0,0-8.012,12.551c-.394.834-.735.84-1.494.5a57.992,57.992,0,0,1-12.851-8.5,77.969,77.969,0,0,1-9.044-8.582c-.708-.809-1.726-1.317-2.137-2.444-.2-.544-.886-.445-1.432-.3-7.538,1.991-14.428,5.182-20.025,10.774-.024.027-.061.032-.152.076M45.889,207.534c.047-.117.112-.28.181-.443q3.586-8.647,7.164-17.3c.233-.559.426-.663,1-.38a11.169,11.169,0,0,1,4.332,4.431.848.848,0,0,1-.034.9q-3.359,7.757-6.708,15.525c-.18.416-.342.622-.861.431a15.244,15.244,0,0,1-4.649-2.53c-.184-.155-.418-.285-.422-.632" transform="translate(45.213 -82.566)" fill="#0f2347" fill-rule="evenodd"/>
        <path id="パス_290" data-name="パス 290" d="M141.675,164.439q-.254-8.1-.5-16.2c-.009-.249-.013-.5-.038-.748-.073-.717-.456-1.279-1.171-1.3-.822-.028-.969.7-1.071,1.35a4.779,4.779,0,0,0,.015.851q.481,16.1.959,32.2c.007.178,0,.356.014.533.056.782.31,1.467,1.231,1.415.852-.048,1.07-.712,1.05-1.461-.117-3.907-.251-7.817-.348-11.726-.041-1.634-.007-3.268-.007-4.909-.043,0-.088,0-.13,0" transform="translate(6.323 -66.207)" fill="#0f2347" fill-rule="evenodd"/>
        <path id="パス_291" data-name="パス 291" d="M233.714,140.5q-7.561.358-15.115.71a4.024,4.024,0,0,0-.74.068,1.1,1.1,0,0,0-.977,1.2,1.06,1.06,0,0,0,1.067,1,9.06,9.06,0,0,0,1.278,0q14.634-.7,29.269-1.4a5.506,5.506,0,0,0,.851-.074,1.094,1.094,0,0,0,.009-2.175,2.755,2.755,0,0,0-.739-.036q-7.455.346-14.9.712Z" transform="translate(-144.515 -63.31)" fill="#0f2347" fill-rule="evenodd"/>
        <path id="パス_292" data-name="パス 292" d="M333.185,227.311l-15.12-.542a4.068,4.068,0,0,0-.745.007c-.625.106-1.07.436-1.072,1.119a1.057,1.057,0,0,0,.98,1.085,8.773,8.773,0,0,0,1.274.1q14.639.514,29.284,1.017a5.678,5.678,0,0,0,.852,0,1.093,1.093,0,0,0,.189-2.166,2.693,2.693,0,0,0-.732-.1q-7.46-.27-14.911-.519Z" transform="translate(-298.269 -102.699)" fill="#0f2347" fill-rule="evenodd"/>
        <path id="パス_293" data-name="パス 293" d="M285.815,259.593l-32.185-.543c-.537,0-1.07-.032-1.585.008-1.33.106-2.278.436-2.281,1.119,0,.627.844.977,2.087,1.085.883.076,1.8.09,2.712.1q31.162.514,62.335,1.017c.609.01,1.22.028,1.815,0,1.258-.067,2.144-.375,2.27-1s-.672-.992-1.869-1.168a11.884,11.884,0,0,0-1.556-.1q-15.88-.27-31.742-.519Z" transform="translate(-233.178 -117.32)" fill="#0f2347" fill-rule="evenodd"/>
        <path id="パス_294" data-name="パス 294" d="M285.815,285.929l-32.185-.543c-.537,0-1.07-.032-1.585.008-1.33.106-2.278.436-2.281,1.119,0,.627.844.977,2.087,1.085.883.076,1.8.09,2.712.1q31.162.514,62.335,1.016c.609.01,1.22.028,1.815,0,1.258-.067,2.144-.375,2.27-1s-.672-.993-1.869-1.167a11.884,11.884,0,0,0-1.556-.1q-15.88-.27-31.742-.519Z" transform="translate(-233.178 -129.248)" fill="#0f2347" fill-rule="evenodd"/>
        <path id="パス_295" data-name="パス 295" d="M285.815,312.266l-32.185-.543c-.537,0-1.07-.032-1.585.008-1.33.106-2.278.436-2.281,1.119,0,.627.844.977,2.087,1.085.883.076,1.8.09,2.712.1q31.162.514,62.335,1.016c.609.01,1.22.028,1.815,0,1.258-.067,2.144-.375,2.27-1s-.672-.993-1.869-1.167a11.884,11.884,0,0,0-1.556-.1q-15.88-.27-31.742-.519Z" transform="translate(-233.178 -141.176)" fill="#0f2347" fill-rule="evenodd"/>
        <path id="パス_296" data-name="パス 296" d="M163.107,167.756h-8.624a6.528,6.528,0,0,0-1.061.039,1.053,1.053,0,0,0-.967.982,1.078,1.078,0,0,0,.878,1.171,2.848,2.848,0,0,0,.735.089q9.047.3,18.1.587a3.959,3.959,0,0,0,.64-.007c.658-.09,1.182-.387,1.174-1.13a1.092,1.092,0,0,0-1.182-1.113c-1.524-.08-3.052-.152-4.579-.181-1.7-.031-3.406-.007-5.109-.007Z" transform="translate(-32.919 -75.977)" fill="#0f2347" fill-rule="evenodd"/>
        <path id="パス_297" data-name="パス 297" d="M250.893,166.614h-7.24c-.319,0-.642-.024-.959.007-.665.063-1.189.364-1.207,1.1s.476,1.063,1.153,1.152a6.313,6.313,0,0,0,.636.027q7.612.181,15.227.361c.14.005.284.013.426.009.768-.02,1.5-.205,1.517-1.12s-.676-1.16-1.46-1.16q-4.047-.011-8.094-.005c0-.123,0-.245,0-.366" transform="translate(-168.101 -75.457)" fill="#0f2347" fill-rule="evenodd"/>
        <path id="パス_298" data-name="パス 298" d="M254.741,196.44c2.022,0,4.045,0,6.067,0,.8,0,1.593-.1,1.614-1.1s-.755-1.171-1.557-1.183q-6.174-.1-12.347-.177c-.8-.009-1.593.14-1.62,1.123-.027,1,.755,1.158,1.564,1.158h6.278Z" transform="translate(-173.038 -87.854)" fill="#0f2347" fill-rule="evenodd"/>
        <path id="パス_299" data-name="パス 299" d="M261.205,224.579a8.242,8.242,0,0,0,1.068-.009,1.081,1.081,0,0,0,.181-2.131,3.849,3.849,0,0,0-.838-.144q-4.725-.319-9.448-.62c-.809-.054-1.591.1-1.636,1.076-.046.908.664,1.146,1.444,1.2,3.006.2,6.015.411,9.229.631" transform="translate(-175.892 -100.393)" fill="#0f2347" fill-rule="evenodd"/>
        <path id="パス_301" data-name="パス 301" d="M336.218,173.5q5.931,0,11.865,0c1.567,0,3.114-.1,3.157-1.1s-1.478-1.171-3.045-1.183q-12.072-.1-24.144-.177c-1.557-.009-3.114.141-3.168,1.123-.052,1,1.477,1.158,3.06,1.158h12.276Z" transform="translate(-302.33 -77.466)" fill="#0f2347" fill-rule="evenodd"/>
        <path id="パス_302" data-name="パス 302" d="M345.457,201.641c.431,0,1.269.038,2.09-.009,1.169-.068,1.924-.428,1.984-1.041.056-.566-.593-.931-1.633-1.09a14.2,14.2,0,0,0-1.638-.144q-9.239-.318-18.474-.62c-1.582-.054-3.112.1-3.2,1.076-.092.908,1.3,1.146,2.822,1.2,5.878.2,11.763.411,18.049.631" transform="translate(-302.649 -90.005)" fill="#0f2347" fill-rule="evenodd"/>
        <path id="パス_303" data-name="パス 303" d="M223,163.86a1.916,1.916,0,0,0-.548-1.38,11.461,11.461,0,0,0-4.819-3.175,4.212,4.212,0,0,0-1.142-.18.8.8,0,0,0-.861.638.729.729,0,0,0,.405.9,17.8,17.8,0,0,1,5.254,3.7,1.156,1.156,0,0,0,1.283.256.8.8,0,0,0,.427-.759" transform="translate(-116.494 -72.068)" fill="#0f2347" fill-rule="evenodd"/>
        <path id="パス_304" data-name="パス 304" d="M117.941,141.057c.726,0,1.157-.205,1.326-.757a.992.992,0,0,0-.515-1.27,38.787,38.787,0,0,0-5.262-1.98,1,1,0,0,0-1.219.634.967.967,0,0,0,.4,1.309,46.971,46.971,0,0,0,5.273,2.065" transform="translate(43.769 -62.052)" fill="#0f2347" fill-rule="evenodd"/>
        <path id="パス_305" data-name="パス 305" d="M220.784,165.1a.963.963,0,0,0-.991.566.819.819,0,0,0,.409,1.09,30.867,30.867,0,0,1,4.476,3.234c.492.375,1.12.614,1.629.036a1.1,1.1,0,0,0-.148-1.552,11.953,11.953,0,0,0-5.006-3.3,3.308,3.308,0,0,0-.369-.079" transform="translate(-122.316 -74.775)" fill="#0f2347" fill-rule="evenodd"/>
        <path id="パス_306" data-name="パス 306" d="M231.519,176.559a1.57,1.57,0,0,0-.643-1.287,14.228,14.228,0,0,0-4.681-2.656c-.6-.18-1.262-.319-1.546.423-.269.7.315,1.022.838,1.263a25.469,25.469,0,0,1,4.233,2.826,1.254,1.254,0,0,0,1.285.29.874.874,0,0,0,.515-.859" transform="translate(-129.925 -78.114)" fill="#0f2347" fill-rule="evenodd"/>
        <path id="パス_307" data-name="パス 307" d="M110.663,119.294c.014-.742-.02-1.492-.887-1.733-.928-.258-1.465.326-1.857,1.061a5.056,5.056,0,0,0-.617,2.872,1.436,1.436,0,0,0,1.177,1.454,1.4,1.4,0,0,0,1.541-.883,6.079,6.079,0,0,0,.643-2.772" transform="translate(55.102 -53.216)" fill="#0f2347" fill-rule="evenodd"/>
        <path id="パス_308" data-name="パス 308" d="M105.154,106.416a1.334,1.334,0,0,0-1.207.728c-.191.357-.119.9.233.859.907-.115,1.155.589,1.64,1.025a.8.8,0,0,0,.881.2.766.766,0,0,0,.45-.773,2.443,2.443,0,0,0-2-2.036" transform="translate(60.498 -48.197)" fill="#0f2347" fill-rule="evenodd"/>
        <path id="パス_309" data-name="パス 309" d="M144.941,73.177q0-6.879,0-13.761c0-1.921.379-2.307,2.31-2.339q13.171-.236,26.344-.46c.88-.014,1.9-.164,2.085,1.089.115.807-.58,1.173-2.094,1.2-8.46.146-16.922.306-25.386.425-.78.011-1.018.189-1.014,1.006q.038,12.744-.005,25.494c0,.724.17.973.941.962q12.265-.151,24.533-.22c.753-.005,1.04-.156,1.058-.977.081-3.629.236-7.249.369-10.877a10.756,10.756,0,0,1,.13-1.481,1.037,1.037,0,0,1,1.11-.944,1.085,1.085,0,0,1,1.067,1.117,4.033,4.033,0,0,1,.007.533c-.156,4.371-.3,8.741-.474,13.111-.047,1.24-.555,1.746-1.791,1.757q-13.758.138-27.521.247c-1.248.009-1.676-.465-1.677-1.8q-.016-7.041-.005-14.08Z" transform="translate(-32.697 -28.595)" fill="#0f2347" fill-rule="evenodd"/>
        <path id="パス_310" data-name="パス 310" d="M182.9,70.651a2.1,2.1,0,0,1-1.047,2.06c-5.347,2.975-9.249,7.466-12.862,12.264-.128.169-.251.344-.381.512-1.344,1.742-2.188,1.838-3.888.465a102.821,102.821,0,0,1-9.04-8.431c-1.247-1.287-1.228-2.007.013-3.256,1.2-1.209,2.4-2.429,3.623-3.616,1.14-1.107,2.042-1.09,3.082.117,1.252,1.45,2.452,2.95,3.626,4.467.419.542.685.592,1.232.148,3.233-2.613,6.509-5.175,9.955-7.507a12.209,12.209,0,0,1,2.964-1.662c1.043-.337,1.658-.045,1.942,1.009.332,1.233.573,2.489.782,3.431m-2.209-.418c-.154-.5-.165-1.2-.5-1.447-.406-.3-.835.326-1.228.584A131.175,131.175,0,0,0,168.033,77.6c-1.292,1.054-2.085,1-3.116-.3-1.146-1.436-2.3-2.863-3.441-4.307-.419-.528-.783-.751-1.341-.117a26.89,26.89,0,0,1-2.259,2.263c-.645.575-.554.98.024,1.557,2.561,2.555,5.2,5.026,7.968,7.346.56.47.817.357,1.159-.117a49.8,49.8,0,0,1,3.366-4.231c2.851-3.164,5.714-6.3,9.533-8.352a1.249,1.249,0,0,0,.763-1.112" transform="translate(-37.146 -32.887)" fill="#0f2347" fill-rule="evenodd"/>
        <path id="パス_311" data-name="パス 311" d="M182.9,72.411a1.249,1.249,0,0,1-.763,1.112c-3.818,2.053-6.682,5.188-9.533,8.352a49.8,49.8,0,0,0-3.366,4.231c-.342.474-.6.588-1.159.117-2.773-2.321-5.407-4.791-7.968-7.346-.578-.577-.669-.982-.024-1.557a26.89,26.89,0,0,0,2.259-2.263c.559-.634.923-.411,1.341.117,1.138,1.443,2.3,2.871,3.441,4.307,1.031,1.3,1.823,1.35,3.116.3a131.177,131.177,0,0,1,10.925-8.228c.393-.258.822-.88,1.228-.584.336.247.347.948.5,1.447" transform="translate(-39.362 -35.064)" fill="#e86b65" fill-rule="evenodd"/>
        <path id="パス_312" data-name="パス 312" d="M54.286,32.988a2.231,2.231,0,0,0-1.89-1.676,2.118,2.118,0,0,0-2.346,1.319q-3.33,7.881-6.511,15.814c-.393.986-.771,2.319.473,2.995,1.2.653,2.115-.279,2.881-1.09a8.85,8.85,0,0,0,1.577-2.134,137.777,137.777,0,0,0,5.555-12.837,4.217,4.217,0,0,0,.262-2.391" transform="translate(146.481 -14.172)" fill="#e86b65" fill-rule="evenodd"/>
        <path id="パス_313" data-name="パス 313" d="M7.811,87.732c1.409-.789,2.971-1.64,4.507-2.541a95.868,95.868,0,0,0,9.361-6.042c1.126-.847,1.724-1.98.788-3.265-.842-1.166-2.025-1.031-3.188-.355-4.413,2.6-8.848,5.179-13.234,7.821-1.205.726-2.169,1.793-1.523,3.322.577,1.357,1.865,1.262,3.289,1.06" transform="translate(199.171 -33.974)" fill="#e86b65" fill-rule="evenodd"/>
        <path id="パス_314" data-name="パス 314" d="M24.164,68.284a9.714,9.714,0,0,0,1.577-1.032,126.8,126.8,0,0,0,10.024-9.779,7.687,7.687,0,0,0,.674-.865,1.848,1.848,0,0,0-.082-2.464,1.773,1.773,0,0,0-2.611-.063q-6.011,5.276-11.9,10.686a2.2,2.2,0,0,0-.564,2.836c.586.988,1.541,1.033,2.882.681" transform="translate(176.117 -24.248)" fill="#e86b65" fill-rule="evenodd"/>
      </g>
    </g>
    <g id="グループ_655" data-name="グループ 655">
      <rect id="長方形_697" data-name="長方形 697" width="263.991" height="37" rx="18.5" transform="translate(2136 4068.618)" fill="#e86b65"/>
      <text id="LP法" transform="translate(2267 4097.618)" fill="#fff" font-size="22" font-family="NotoSansCJKjp-Regular, Noto Sans CJK JP"><tspan x="-23.925" y="0">LP法</tspan></text>
    </g>
    <g id="グループ_656" data-name="グループ 656">
      <rect id="長方形_698" data-name="長方形 698" width="263.991" height="37" rx="18.5" transform="translate(2136 4111.618)" fill="#e86b65"/>
      <text id="家庭用品品質表示法" transform="translate(2267 4139.618)" fill="#fff" font-size="22" font-family="NotoSansCJKjp-Regular, Noto Sans CJK JP"><tspan x="-99" y="0">家庭用品品質表示法</tspan></text>
    </g>
    <g id="グループ_658" data-name="グループ 658">
      <rect id="長方形_700" data-name="長方形 700" width="263.991" height="37" rx="18.5" transform="translate(2136 4197.618)" fill="#e86b65"/>
      <text id="景品表示法" transform="translate(2267 4225.618)" fill="#fff" font-size="22" font-family="NotoSansCJKjp-Regular, Noto Sans CJK JP"><tspan x="-55" y="0">景品表示法</tspan></text>
    </g>
    <g id="グループ_657" data-name="グループ 657">
      <rect id="長方形_699" data-name="長方形 699" width="263.991" height="38" rx="19" transform="translate(2136 4154.618)" fill="#e86b65"/>
      <text id="薬機法" transform="translate(2267 4183.618)" fill="#fff" font-size="22" font-family="NotoSansCJKjp-Regular, Noto Sans CJK JP"><tspan x="-33" y="0">薬機法</tspan></text>
    </g>
  </g>
</svg>
